999
"DXF R12 Output" (www.mydxf.blogspot.com)
 0 
SECTION
 2 
HEADER
 9 
$ACADVER
 1 
AC1009
 9 
$EXTMIN
 10 
 0 
 20 
 0 
 9 
$EXTMAX
 10 
 8.5 
 20 
 11 
 0 
ENDSEC
 0 
SECTION
 2 
ENTITIES
0
LINE
8
Outline
10
28.000000
20
190.000000
11
17.800000
21
160.000000
0
LINE
8
Outline
10
17.800000
20
160.000000
11
17.800000
21
130.000000
0
LINE
8
Outline
10
17.800000
20
130.000000
11
273.800000
21
130.000000
0
LINE
8
Outline
10
273.800000
20
130.000000
11
273.800000
21
160.000000
0
LINE
8
Outline
10
273.800000
20
160.000000
11
263.600000
21
190.000000
0
LINE
8
Outline
10
263.600000
20
190.000000
11
28.000000
21
190.000000
0
LINE
8
Splitter
10
261.600000
20
190.000000
11
261.600000
21
136.000000
0
LINE
8
Splitter
10
246.000000
20
190.000000
11
247.000000
21
188.036360
0
LINE
8
Splitter
10
247.000000
20
188.036360
11
247.000000
21
136.000000
0
LINE
8
Splitter
10
250.000000
20
190.000000
11
249.000000
21
188.036360
0
LINE
8
Splitter
10
249.000000
20
188.036360
11
249.000000
21
136.000000
0
LINE
8
Splitter
10
231.400000
20
190.000000
11
232.400000
21
188.036360
0
LINE
8
Splitter
10
232.400000
20
188.036360
11
232.400000
21
136.000000
0
LINE
8
Splitter
10
235.400000
20
190.000000
11
234.400000
21
188.036360
0
LINE
8
Splitter
10
234.400000
20
188.036360
11
234.400000
21
136.000000
0
LINE
8
Splitter
10
216.800000
20
190.000000
11
217.800000
21
188.036360
0
LINE
8
Splitter
10
217.800000
20
188.036360
11
217.800000
21
136.000000
0
LINE
8
Splitter
10
220.800000
20
190.000000
11
219.800000
21
188.036360
0
LINE
8
Splitter
10
219.800000
20
188.036360
11
219.800000
21
136.000000
0
LINE
8
Splitter
10
202.200000
20
190.000000
11
203.200000
21
188.036360
0
LINE
8
Splitter
10
203.200000
20
188.036360
11
203.200000
21
136.000000
0
LINE
8
Splitter
10
206.200000
20
190.000000
11
205.200000
21
188.036360
0
LINE
8
Splitter
10
205.200000
20
188.036360
11
205.200000
21
136.000000
0
LINE
8
Splitter
10
187.600000
20
190.000000
11
188.600000
21
188.036360
0
LINE
8
Splitter
10
188.600000
20
188.036360
11
188.600000
21
136.000000
0
LINE
8
Splitter
10
191.600000
20
190.000000
11
190.600000
21
188.036360
0
LINE
8
Splitter
10
190.600000
20
188.036360
11
190.600000
21
136.000000
0
LINE
8
Splitter
10
173.000000
20
190.000000
11
174.000000
21
188.036360
0
LINE
8
Splitter
10
174.000000
20
188.036360
11
174.000000
21
136.000000
0
LINE
8
Splitter
10
177.000000
20
190.000000
11
176.000000
21
188.036360
0
LINE
8
Splitter
10
176.000000
20
188.036360
11
176.000000
21
136.000000
0
LINE
8
Splitter
10
158.400000
20
190.000000
11
159.400000
21
188.036360
0
LINE
8
Splitter
10
159.400000
20
188.036360
11
159.400000
21
136.000000
0
LINE
8
Splitter
10
162.400000
20
190.000000
11
161.400000
21
188.036360
0
LINE
8
Splitter
10
161.400000
20
188.036360
11
161.400000
21
136.000000
0
LINE
8
Splitter
10
143.800000
20
190.000000
11
144.800000
21
188.036360
0
LINE
8
Splitter
10
144.800000
20
188.036360
11
144.800000
21
136.000000
0
LINE
8
Splitter
10
147.800000
20
190.000000
11
146.800000
21
188.036360
0
LINE
8
Splitter
10
146.800000
20
188.036360
11
146.800000
21
136.000000
0
LINE
8
Splitter
10
129.200000
20
190.000000
11
130.200000
21
188.036360
0
LINE
8
Splitter
10
130.200000
20
188.036360
11
130.200000
21
136.000000
0
LINE
8
Splitter
10
133.200000
20
190.000000
11
132.200000
21
188.036360
0
LINE
8
Splitter
10
132.200000
20
188.036360
11
132.200000
21
136.000000
0
LINE
8
Splitter
10
114.600000
20
190.000000
11
115.600000
21
188.036360
0
LINE
8
Splitter
10
115.600000
20
188.036360
11
115.600000
21
136.000000
0
LINE
8
Splitter
10
118.600000
20
190.000000
11
117.600000
21
188.036360
0
LINE
8
Splitter
10
117.600000
20
188.036360
11
117.600000
21
136.000000
0
LINE
8
Splitter
10
100.000000
20
190.000000
11
101.000000
21
188.036360
0
LINE
8
Splitter
10
101.000000
20
188.036360
11
101.000000
21
136.000000
0
LINE
8
Splitter
10
104.000000
20
190.000000
11
103.000000
21
188.036360
0
LINE
8
Splitter
10
103.000000
20
188.036360
11
103.000000
21
136.000000
0
LINE
8
Splitter
10
85.400000
20
190.000000
11
86.400000
21
188.036360
0
LINE
8
Splitter
10
86.400000
20
188.036360
11
86.400000
21
136.000000
0
LINE
8
Splitter
10
89.400000
20
190.000000
11
88.400000
21
188.036360
0
LINE
8
Splitter
10
88.400000
20
188.036360
11
88.400000
21
136.000000
0
LINE
8
Splitter
10
70.800000
20
190.000000
11
71.800000
21
188.036360
0
LINE
8
Splitter
10
71.800000
20
188.036360
11
71.800000
21
136.000000
0
LINE
8
Splitter
10
74.800000
20
190.000000
11
73.800000
21
188.036360
0
LINE
8
Splitter
10
73.800000
20
188.036360
11
73.800000
21
136.000000
0
LINE
8
Splitter
10
56.200000
20
190.000000
11
57.200000
21
188.036360
0
LINE
8
Splitter
10
57.200000
20
188.036360
11
57.200000
21
136.000000
0
LINE
8
Splitter
10
60.200000
20
190.000000
11
59.200000
21
188.036360
0
LINE
8
Splitter
10
59.200000
20
188.036360
11
59.200000
21
136.000000
0
LINE
8
Splitter
10
41.600000
20
190.000000
11
42.600000
21
188.036360
0
LINE
8
Splitter
10
42.600000
20
188.036360
11
42.600000
21
136.000000
0
LINE
8
Splitter
10
45.600000
20
190.000000
11
44.600000
21
188.036360
0
LINE
8
Splitter
10
44.600000
20
188.036360
11
44.600000
21
136.000000
0
LINE
8
Splitter
10
30.000000
20
190.000000
11
30.000000
21
136.000000
 0 
ENDSEC
 0 
EOF