M48
; DRILL file {KiCad (6.0.7)} date Wed Aug  9 20:53:40 2023
; FORMAT={-:-/ absolute / inch / decimal}
; #@! TF.CreationDate,2023-08-09T20:53:40+08:00
; #@! TF.GenerationSoftware,Kicad,Pcbnew,(6.0.7)
; #@! TF.FileFunction,NonPlated,1,2,NPTH
FMAT,2
INCH
; #@! TA.AperFunction,NonPlated,NPTH,ComponentDrill
T1C0.0256
; #@! TA.AperFunction,NonPlated,NPTH,ComponentDrill
T2C0.0827
; #@! TA.AperFunction,NonPlated,NPTH,ComponentDrill
T3C0.1260
%
G90
G05
T1
X13.6746Y-4.5865
X13.7524Y-4.8003
T2
X3.988Y-4.688
X4.2557Y-4.688
X4.5628Y-4.688
X4.8306Y-4.688
X5.1376Y-4.688
X5.4054Y-4.688
X5.7124Y-4.688
X5.9802Y-4.688
X6.2872Y-4.688
X6.555Y-4.688
X6.862Y-4.688
X7.1298Y-4.688
X7.4369Y-4.688
X7.7046Y-4.688
X8.0117Y-4.688
X8.2794Y-4.688
X8.5865Y-4.688
X8.8542Y-4.688
X9.1613Y-4.688
X9.429Y-4.688
X9.7361Y-4.688
X10.0038Y-4.688
X10.3109Y-4.688
X10.5786Y-4.688
X10.8857Y-4.688
X11.1534Y-4.688
X11.4605Y-4.688
X11.7282Y-4.688
X12.0353Y-4.688
X12.303Y-4.688
X12.6101Y-4.688
X12.8778Y-4.688
T3
X3.5117Y-5.7903
X3.8266Y-2.4439
X13.0392Y-2.4439
X13.3542Y-5.7903
T0
M30
