%TF.GenerationSoftware,KiCad,Pcbnew,(6.0.7)*%
%TF.CreationDate,2023-08-09T20:53:38+08:00*%
%TF.ProjectId,chu_main,6368755f-6d61-4696-9e2e-6b696361645f,rev?*%
%TF.SameCoordinates,Original*%
%TF.FileFunction,Copper,L1,Top*%
%TF.FilePolarity,Positive*%
%FSLAX46Y46*%
G04 Gerber Fmt 4.6, Leading zero omitted, Abs format (unit mm)*
G04 Created by KiCad (PCBNEW (6.0.7)) date 2023-08-09 20:53:38*
%MOMM*%
%LPD*%
G01*
G04 APERTURE LIST*
G04 Aperture macros list*
%AMRoundRect*
0 Rectangle with rounded corners*
0 $1 Rounding radius*
0 $2 $3 $4 $5 $6 $7 $8 $9 X,Y pos of 4 corners*
0 Add a 4 corners polygon primitive as box body*
4,1,4,$2,$3,$4,$5,$6,$7,$8,$9,$2,$3,0*
0 Add four circle primitives for the rounded corners*
1,1,$1+$1,$2,$3*
1,1,$1+$1,$4,$5*
1,1,$1+$1,$6,$7*
1,1,$1+$1,$8,$9*
0 Add four rect primitives between the rounded corners*
20,1,$1+$1,$2,$3,$4,$5,0*
20,1,$1+$1,$4,$5,$6,$7,0*
20,1,$1+$1,$6,$7,$8,$9,0*
20,1,$1+$1,$8,$9,$2,$3,0*%
%AMHorizOval*
0 Thick line with rounded ends*
0 $1 width*
0 $2 $3 position (X,Y) of the first rounded end (center of the circle)*
0 $4 $5 position (X,Y) of the second rounded end (center of the circle)*
0 Add line between two ends*
20,1,$1,$2,$3,$4,$5,0*
0 Add two circle primitives to create the rounded ends*
1,1,$1,$2,$3*
1,1,$1,$4,$5*%
G04 Aperture macros list end*
%TA.AperFunction,SMDPad,CuDef*%
%ADD10RoundRect,0.110000X0.110000X0.640000X-0.110000X0.640000X-0.110000X-0.640000X0.110000X-0.640000X0*%
%TD*%
%TA.AperFunction,SMDPad,CuDef*%
%ADD11RoundRect,0.257692X6.442308X11.342308X-6.442308X11.342308X-6.442308X-11.342308X6.442308X-11.342308X0*%
%TD*%
%TA.AperFunction,SMDPad,CuDef*%
%ADD12RoundRect,0.200000X-0.200000X-0.275000X0.200000X-0.275000X0.200000X0.275000X-0.200000X0.275000X0*%
%TD*%
%TA.AperFunction,SMDPad,CuDef*%
%ADD13RoundRect,0.257692X-6.442308X-11.342308X6.442308X-11.342308X6.442308X11.342308X-6.442308X11.342308X0*%
%TD*%
%TA.AperFunction,SMDPad,CuDef*%
%ADD14RoundRect,0.237500X-0.300000X-0.237500X0.300000X-0.237500X0.300000X0.237500X-0.300000X0.237500X0*%
%TD*%
%TA.AperFunction,SMDPad,CuDef*%
%ADD15RoundRect,0.150000X-0.512500X-0.150000X0.512500X-0.150000X0.512500X0.150000X-0.512500X0.150000X0*%
%TD*%
%TA.AperFunction,ComponentPad*%
%ADD16O,1.700000X1.700000*%
%TD*%
%TA.AperFunction,ComponentPad*%
%ADD17R,1.700000X1.700000*%
%TD*%
%TA.AperFunction,ComponentPad*%
%ADD18HorizOval,1.000000X-0.516831X-0.188111X0.516831X0.188111X0*%
%TD*%
%TA.AperFunction,ComponentPad*%
%ADD19HorizOval,1.000000X-0.281908X-0.102606X0.281908X0.102606X0*%
%TD*%
%TA.AperFunction,ComponentPad*%
%ADD20RoundRect,0.300000X0.950000X-0.450000X0.950000X0.450000X-0.950000X0.450000X-0.950000X-0.450000X0*%
%TD*%
G04 APERTURE END LIST*
D10*
%TO.P,D29,4*%
%TO.N,N/C*%
X310371000Y-62424000D03*
%TO.P,D29,3*%
X309521000Y-62424000D03*
%TO.P,D29,2*%
X308671000Y-62424000D03*
%TO.P,D29,1*%
X307821000Y-62424000D03*
%TD*%
D11*
%TO.P,K32,1,Pin_1*%
%TO.N,Net-(K32-Pad1)*%
X323696000Y-104074000D03*
%TD*%
D10*
%TO.P,D13,4*%
%TO.N,N/C*%
X193571000Y-62424000D03*
%TO.P,D13,3*%
X192721000Y-62424000D03*
%TO.P,D13,2*%
X191871000Y-62424000D03*
%TO.P,D13,1*%
X191021000Y-62424000D03*
%TD*%
D12*
%TO.P,R20,2*%
%TO.N,GND*%
X344821000Y-129584000D03*
%TO.P,R20,1*%
%TO.N,Net-(R20-Pad1)*%
X343171000Y-129584000D03*
%TD*%
D10*
%TO.P,D22,4*%
%TO.N,N/C*%
X259271000Y-59424000D03*
%TO.P,D22,3*%
X258421000Y-59424000D03*
%TO.P,D22,2*%
X257571000Y-59424000D03*
%TO.P,D22,1*%
X256721000Y-59424000D03*
%TD*%
%TO.P,D1,4*%
%TO.N,N/C*%
X105971000Y-62424000D03*
%TO.P,D1,3*%
X105121000Y-62424000D03*
%TO.P,D1,2*%
X104271000Y-62424000D03*
%TO.P,D1,1*%
X103421000Y-62424000D03*
%TD*%
D11*
%TO.P,K10,1,Pin_1*%
%TO.N,Net-(K10-Pad1)*%
X163096000Y-104074000D03*
%TD*%
D13*
%TO.P,K3,1,Pin_1*%
%TO.N,Net-(K3-Pad1)*%
X119296000Y-80074000D03*
%TD*%
D10*
%TO.P,D25,4*%
%TO.N,N/C*%
X281171000Y-62424000D03*
%TO.P,D25,3*%
X280321000Y-62424000D03*
%TO.P,D25,2*%
X279471000Y-62424000D03*
%TO.P,D25,1*%
X278621000Y-62424000D03*
%TD*%
%TO.P,D26,4*%
%TO.N,N/C*%
X288471000Y-59424000D03*
%TO.P,D26,3*%
X287621000Y-59424000D03*
%TO.P,D26,2*%
X286771000Y-59424000D03*
%TO.P,D26,1*%
X285921000Y-59424000D03*
%TD*%
%TO.P,D2,4*%
%TO.N,N/C*%
X113271000Y-59424000D03*
%TO.P,D2,3*%
X112421000Y-59424000D03*
%TO.P,D2,2*%
X111571000Y-59424000D03*
%TO.P,D2,1*%
X110721000Y-59424000D03*
%TD*%
%TO.P,D14,4*%
%TO.N,N/C*%
X200871000Y-59424000D03*
%TO.P,D14,3*%
X200021000Y-59424000D03*
%TO.P,D14,2*%
X199171000Y-59424000D03*
%TO.P,D14,1*%
X198321000Y-59424000D03*
%TD*%
D13*
%TO.P,K23,1,Pin_1*%
%TO.N,Net-(K23-Pad1)*%
X265296000Y-80074000D03*
%TD*%
%TO.P,K13,1,Pin_1*%
%TO.N,Net-(K13-Pad1)*%
X192296000Y-80074000D03*
%TD*%
D12*
%TO.P,R4,2*%
%TO.N,Net-(R4-Pad2)*%
X105021000Y-147074000D03*
%TO.P,R4,1*%
%TO.N,Net-(D1-PadI)*%
X103371000Y-147074000D03*
%TD*%
D10*
%TO.P,D24,4*%
%TO.N,N/C*%
X273871000Y-59424000D03*
%TO.P,D24,3*%
X273021000Y-59424000D03*
%TO.P,D24,2*%
X272171000Y-59424000D03*
%TO.P,D24,1*%
X271321000Y-59424000D03*
%TD*%
D13*
%TO.P,K1,1,Pin_1*%
%TO.N,Net-(K1-Pad1)*%
X104696000Y-80074000D03*
%TD*%
D14*
%TO.P,C2,2*%
%TO.N,GND*%
X180058500Y-127074000D03*
%TO.P,C2,1*%
%TO.N,+5V*%
X178333500Y-127074000D03*
%TD*%
D11*
%TO.P,K8,1,Pin_1*%
%TO.N,Net-(K8-Pad1)*%
X148496000Y-104074000D03*
%TD*%
D10*
%TO.P,D15,4*%
%TO.N,N/C*%
X208171000Y-62424000D03*
%TO.P,D15,3*%
X207321000Y-62424000D03*
%TO.P,D15,2*%
X206471000Y-62424000D03*
%TO.P,D15,1*%
X205621000Y-62424000D03*
%TD*%
%TO.P,D9,4*%
%TO.N,N/C*%
X164371000Y-62424000D03*
%TO.P,D9,3*%
X163521000Y-62424000D03*
%TO.P,D9,2*%
X162671000Y-62424000D03*
%TO.P,D9,1*%
X161821000Y-62424000D03*
%TD*%
D11*
%TO.P,K2,1,Pin_1*%
%TO.N,Net-(K2-Pad1)*%
X104696000Y-104074000D03*
%TD*%
D10*
%TO.P,D19,4*%
%TO.N,N/C*%
X237371000Y-62424000D03*
%TO.P,D19,3*%
X236521000Y-62424000D03*
%TO.P,D19,2*%
X235671000Y-62424000D03*
%TO.P,D19,1*%
X234821000Y-62424000D03*
%TD*%
%TO.P,D4,4*%
%TO.N,N/C*%
X127871000Y-59424000D03*
%TO.P,D4,3*%
X127021000Y-59424000D03*
%TO.P,D4,2*%
X126171000Y-59424000D03*
%TO.P,D4,1*%
X125321000Y-59424000D03*
%TD*%
D13*
%TO.P,K9,1,Pin_1*%
%TO.N,Net-(K9-Pad1)*%
X163096000Y-80074000D03*
%TD*%
D10*
%TO.P,D7,4*%
%TO.N,N/C*%
X149771000Y-62424000D03*
%TO.P,D7,3*%
X148921000Y-62424000D03*
%TO.P,D7,2*%
X148071000Y-62424000D03*
%TO.P,D7,1*%
X147221000Y-62424000D03*
%TD*%
D14*
%TO.P,C4,2*%
%TO.N,GND*%
X168018500Y-147924000D03*
%TO.P,C4,1*%
%TO.N,+3V3*%
X166293500Y-147924000D03*
%TD*%
D13*
%TO.P,K25,1,Pin_1*%
%TO.N,Net-(K25-Pad1)*%
X279896000Y-80074000D03*
%TD*%
D10*
%TO.P,D18,4*%
%TO.N,N/C*%
X230071000Y-59424000D03*
%TO.P,D18,3*%
X229221000Y-59424000D03*
%TO.P,D18,2*%
X228371000Y-59424000D03*
%TO.P,D18,1*%
X227521000Y-59424000D03*
%TD*%
D11*
%TO.P,K30,1,Pin_1*%
%TO.N,Net-(K30-Pad1)*%
X309096000Y-104074000D03*
%TD*%
D10*
%TO.P,D20,4*%
%TO.N,N/C*%
X244671000Y-59424000D03*
%TO.P,D20,3*%
X243821000Y-59424000D03*
%TO.P,D20,2*%
X242971000Y-59424000D03*
%TO.P,D20,1*%
X242121000Y-59424000D03*
%TD*%
D13*
%TO.P,K21,1,Pin_1*%
%TO.N,Net-(K21-Pad1)*%
X250696000Y-80074000D03*
%TD*%
D11*
%TO.P,K4,1,Pin_1*%
%TO.N,Net-(K4-Pad1)*%
X119296000Y-104074000D03*
%TD*%
D13*
%TO.P,K7,1,Pin_1*%
%TO.N,Net-(K7-Pad1)*%
X148496000Y-80074000D03*
%TD*%
D11*
%TO.P,K16,1,Pin_1*%
%TO.N,Net-(K16-Pad1)*%
X206896000Y-104074000D03*
%TD*%
D10*
%TO.P,D8,4*%
%TO.N,N/C*%
X157071000Y-59424000D03*
%TO.P,D8,3*%
X156221000Y-59424000D03*
%TO.P,D8,2*%
X155371000Y-59424000D03*
%TO.P,D8,1*%
X154521000Y-59424000D03*
%TD*%
D14*
%TO.P,C3,2*%
%TO.N,GND*%
X185058500Y-147074000D03*
%TO.P,C3,1*%
%TO.N,+5V*%
X183333500Y-147074000D03*
%TD*%
D12*
%TO.P,R21,2*%
%TO.N,GND*%
X345021000Y-132074000D03*
%TO.P,R21,1*%
%TO.N,Net-(R21-Pad1)*%
X343371000Y-132074000D03*
%TD*%
D10*
%TO.P,D28,4*%
%TO.N,N/C*%
X303071000Y-59424000D03*
%TO.P,D28,3*%
X302221000Y-59424000D03*
%TO.P,D28,2*%
X301371000Y-59424000D03*
%TO.P,D28,1*%
X300521000Y-59424000D03*
%TD*%
D11*
%TO.P,K24,1,Pin_1*%
%TO.N,Net-(K24-Pad1)*%
X265296000Y-104074000D03*
%TD*%
%TO.P,K18,1,Pin_1*%
%TO.N,Net-(K18-Pad1)*%
X221496000Y-104074000D03*
%TD*%
%TO.P,K6,1,Pin_1*%
%TO.N,Net-(K6-Pad1)*%
X133896000Y-104074000D03*
%TD*%
D10*
%TO.P,D16,4*%
%TO.N,N/C*%
X215471000Y-59424000D03*
%TO.P,D16,3*%
X214621000Y-59424000D03*
%TO.P,D16,2*%
X213771000Y-59424000D03*
%TO.P,D16,1*%
X212921000Y-59424000D03*
%TD*%
D14*
%TO.P,C6,2*%
%TO.N,GND*%
X215058500Y-147074000D03*
%TO.P,C6,1*%
%TO.N,+3V3*%
X213333500Y-147074000D03*
%TD*%
D10*
%TO.P,D5,4*%
%TO.N,N/C*%
X135171000Y-62424000D03*
%TO.P,D5,3*%
X134321000Y-62424000D03*
%TO.P,D5,2*%
X133471000Y-62424000D03*
%TO.P,D5,1*%
X132621000Y-62424000D03*
%TD*%
%TO.P,D12,4*%
%TO.N,N/C*%
X186271000Y-59424000D03*
%TO.P,D12,3*%
X185421000Y-59424000D03*
%TO.P,D12,2*%
X184571000Y-59424000D03*
%TO.P,D12,1*%
X183721000Y-59424000D03*
%TD*%
D13*
%TO.P,K15,1,Pin_1*%
%TO.N,Net-(K15-Pad1)*%
X206896000Y-80074000D03*
%TD*%
D11*
%TO.P,K20,1,Pin_1*%
%TO.N,Net-(K20-Pad1)*%
X236096000Y-104074000D03*
%TD*%
D10*
%TO.P,D10,4*%
%TO.N,N/C*%
X171671000Y-59424000D03*
%TO.P,D10,3*%
X170821000Y-59424000D03*
%TO.P,D10,2*%
X169971000Y-59424000D03*
%TO.P,D10,1*%
X169121000Y-59424000D03*
%TD*%
D11*
%TO.P,K22,1,Pin_1*%
%TO.N,Net-(K22-Pad1)*%
X250696000Y-104074000D03*
%TD*%
D10*
%TO.P,D31,4*%
%TO.N,N/C*%
X324971000Y-62424000D03*
%TO.P,D31,3*%
X324121000Y-62424000D03*
%TO.P,D31,2*%
X323271000Y-62424000D03*
%TO.P,D31,1*%
X322421000Y-62424000D03*
%TD*%
D13*
%TO.P,K5,1,Pin_1*%
%TO.N,Net-(K5-Pad1)*%
X133896000Y-80074000D03*
%TD*%
D10*
%TO.P,D21,4*%
%TO.N,N/C*%
X251971000Y-62424000D03*
%TO.P,D21,3*%
X251121000Y-62424000D03*
%TO.P,D21,2*%
X250271000Y-62424000D03*
%TO.P,D21,1*%
X249421000Y-62424000D03*
%TD*%
%TO.P,D11,4*%
%TO.N,N/C*%
X178971000Y-62424000D03*
%TO.P,D11,3*%
X178121000Y-62424000D03*
%TO.P,D11,2*%
X177271000Y-62424000D03*
%TO.P,D11,1*%
X176421000Y-62424000D03*
%TD*%
D14*
%TO.P,C7,2*%
%TO.N,GND*%
X210708500Y-147074000D03*
%TO.P,C7,1*%
%TO.N,+3V3*%
X208983500Y-147074000D03*
%TD*%
D10*
%TO.P,D6,4*%
%TO.N,N/C*%
X142471000Y-59424000D03*
%TO.P,D6,3*%
X141621000Y-59424000D03*
%TO.P,D6,2*%
X140771000Y-59424000D03*
%TO.P,D6,1*%
X139921000Y-59424000D03*
%TD*%
D11*
%TO.P,K26,1,Pin_1*%
%TO.N,Net-(K26-Pad1)*%
X279896000Y-104074000D03*
%TD*%
D13*
%TO.P,K19,1,Pin_1*%
%TO.N,Net-(K19-Pad1)*%
X236096000Y-80074000D03*
%TD*%
D11*
%TO.P,K28,1,Pin_1*%
%TO.N,Net-(K28-Pad1)*%
X294496000Y-104074000D03*
%TD*%
D13*
%TO.P,K31,1,Pin_1*%
%TO.N,Net-(K31-Pad1)*%
X323696000Y-80074000D03*
%TD*%
D10*
%TO.P,D23,4*%
%TO.N,N/C*%
X266571000Y-62424000D03*
%TO.P,D23,3*%
X265721000Y-62424000D03*
%TO.P,D23,2*%
X264871000Y-62424000D03*
%TO.P,D23,1*%
X264021000Y-62424000D03*
%TD*%
D11*
%TO.P,K14,1,Pin_1*%
%TO.N,Net-(K14-Pad1)*%
X192296000Y-104074000D03*
%TD*%
D10*
%TO.P,D27,4*%
%TO.N,N/C*%
X295771000Y-62424000D03*
%TO.P,D27,3*%
X294921000Y-62424000D03*
%TO.P,D27,2*%
X294071000Y-62424000D03*
%TO.P,D27,1*%
X293221000Y-62424000D03*
%TD*%
%TO.P,D3,4*%
%TO.N,N/C*%
X120571000Y-62424000D03*
%TO.P,D3,3*%
X119721000Y-62424000D03*
%TO.P,D3,2*%
X118871000Y-62424000D03*
%TO.P,D3,1*%
X118021000Y-62424000D03*
%TD*%
D14*
%TO.P,C1,2*%
%TO.N,GND*%
X185058500Y-142074000D03*
%TO.P,C1,1*%
%TO.N,+5V*%
X183333500Y-142074000D03*
%TD*%
D13*
%TO.P,K11,1,Pin_1*%
%TO.N,Net-(K11-Pad1)*%
X177696000Y-80074000D03*
%TD*%
%TO.P,K29,1,Pin_1*%
%TO.N,Net-(K29-Pad1)*%
X309096000Y-80074000D03*
%TD*%
D15*
%TO.P,U8,5,VCC*%
%TO.N,+5V*%
X110333500Y-151124000D03*
%TO.P,U8,4,Y*%
%TO.N,Net-(D1-PadI)*%
X110333500Y-153024000D03*
%TO.P,U8,3,GND*%
%TO.N,GND*%
X108058500Y-153024000D03*
%TO.P,U8,2,A*%
%TO.N,Net-(R4-Pad2)*%
X108058500Y-152074000D03*
%TO.P,U8,1,NC*%
%TO.N,unconnected-(U8-Pad1)*%
X108058500Y-151124000D03*
%TD*%
D11*
%TO.P,K12,1,Pin_1*%
%TO.N,Net-(K12-Pad1)*%
X177696000Y-104074000D03*
%TD*%
D14*
%TO.P,C5,2*%
%TO.N,GND*%
X175708500Y-127074000D03*
%TO.P,C5,1*%
%TO.N,+3V3*%
X173983500Y-127074000D03*
%TD*%
D10*
%TO.P,D17,4*%
%TO.N,N/C*%
X222771000Y-62424000D03*
%TO.P,D17,3*%
X221921000Y-62424000D03*
%TO.P,D17,2*%
X221071000Y-62424000D03*
%TO.P,D17,1*%
X220221000Y-62424000D03*
%TD*%
D13*
%TO.P,K27,1,Pin_1*%
%TO.N,Net-(K27-Pad1)*%
X294496000Y-80074000D03*
%TD*%
D10*
%TO.P,D30,4*%
%TO.N,N/C*%
X317671000Y-59424000D03*
%TO.P,D30,3*%
X316821000Y-59424000D03*
%TO.P,D30,2*%
X315971000Y-59424000D03*
%TO.P,D30,1*%
X315121000Y-59424000D03*
%TD*%
D13*
%TO.P,K17,1,Pin_1*%
%TO.N,Net-(K17-Pad1)*%
X221496000Y-80074000D03*
%TD*%
D16*
%TO.P,U3,20,VDD*%
%TO.N,+3V3*%
X140546000Y-141854000D03*
%TO.P,U3,19,LED7/ELE11*%
%TO.N,Net-(K12-Pad1)*%
X148166000Y-124074000D03*
%TO.P,U3,18,LED6/ELE10*%
%TO.N,Net-(K11-Pad1)*%
X145626000Y-124074000D03*
%TO.P,U3,17,LED5/ELE9*%
%TO.N,Net-(K10-Pad1)*%
X143086000Y-124074000D03*
%TO.P,U3,16,LED4/ELE8*%
%TO.N,Net-(K9-Pad1)*%
X140546000Y-124074000D03*
%TO.P,U3,15,LED3/ELE7*%
%TO.N,Net-(K8-Pad1)*%
X138006000Y-124074000D03*
%TO.P,U3,14,LED2/ELE6*%
%TO.N,Net-(K7-Pad1)*%
X135466000Y-124074000D03*
%TO.P,U3,13,LED1/ELE5*%
%TO.N,Net-(K6-Pad1)*%
X132926000Y-124074000D03*
%TO.P,U3,12,LED0/ELE4*%
%TO.N,Net-(K5-Pad1)*%
X130386000Y-124074000D03*
%TO.P,U3,11,ELE3*%
%TO.N,Net-(K4-Pad1)*%
X127846000Y-124074000D03*
%TO.P,U3,10,ELE2*%
%TO.N,Net-(K3-Pad1)*%
X125306000Y-124074000D03*
%TO.P,U3,9,ELE1*%
%TO.N,Net-(K2-Pad1)*%
X122766000Y-124074000D03*
D17*
%TO.P,U3,8,ELE0*%
%TO.N,Net-(K1-Pad1)*%
X120226000Y-124074000D03*
D16*
%TO.P,U3,6,VSS*%
%TO.N,GND*%
X127846000Y-141854000D03*
%TO.P,U3,4,ADDR*%
X130386000Y-141854000D03*
%TO.P,U3,3,SDA*%
%TO.N,/SDA*%
X132926000Y-141854000D03*
%TO.P,U3,2,SCL*%
%TO.N,/SCL*%
X135466000Y-141854000D03*
%TO.P,U3,1,~{IRQ}*%
%TO.N,unconnected-(U3-Pad1)*%
X138006000Y-141854000D03*
%TD*%
%TO.P,U4,20,VDD*%
%TO.N,+3V3*%
X220546000Y-141854000D03*
%TO.P,U4,19,LED7/ELE11*%
%TO.N,Net-(K24-Pad1)*%
X228166000Y-124074000D03*
%TO.P,U4,18,LED6/ELE10*%
%TO.N,Net-(K23-Pad1)*%
X225626000Y-124074000D03*
%TO.P,U4,17,LED5/ELE9*%
%TO.N,Net-(K22-Pad1)*%
X223086000Y-124074000D03*
%TO.P,U4,16,LED4/ELE8*%
%TO.N,Net-(K21-Pad1)*%
X220546000Y-124074000D03*
%TO.P,U4,15,LED3/ELE7*%
%TO.N,Net-(K20-Pad1)*%
X218006000Y-124074000D03*
%TO.P,U4,14,LED2/ELE6*%
%TO.N,Net-(K19-Pad1)*%
X215466000Y-124074000D03*
%TO.P,U4,13,LED1/ELE5*%
%TO.N,Net-(K18-Pad1)*%
X212926000Y-124074000D03*
%TO.P,U4,12,LED0/ELE4*%
%TO.N,Net-(K17-Pad1)*%
X210386000Y-124074000D03*
%TO.P,U4,11,ELE3*%
%TO.N,Net-(K16-Pad1)*%
X207846000Y-124074000D03*
%TO.P,U4,10,ELE2*%
%TO.N,Net-(K15-Pad1)*%
X205306000Y-124074000D03*
%TO.P,U4,9,ELE1*%
%TO.N,Net-(K14-Pad1)*%
X202766000Y-124074000D03*
D17*
%TO.P,U4,8,ELE0*%
%TO.N,Net-(K13-Pad1)*%
X200226000Y-124074000D03*
D16*
%TO.P,U4,6,VSS*%
%TO.N,GND*%
X207846000Y-141854000D03*
%TO.P,U4,4,ADDR*%
%TO.N,/B0*%
X210386000Y-141854000D03*
%TO.P,U4,3,SDA*%
%TO.N,/SDA*%
X212926000Y-141854000D03*
%TO.P,U4,2,SCL*%
%TO.N,/SCL*%
X215466000Y-141854000D03*
%TO.P,U4,1,~{IRQ}*%
%TO.N,unconnected-(U4-Pad1)*%
X218006000Y-141854000D03*
%TD*%
D18*
%TO.P,USB1,13,SHIELD*%
%TO.N,unconnected-(USB1-Pad13)*%
X346347357Y-115333424D03*
X349302411Y-123452369D03*
D19*
X353230326Y-122022724D03*
X350275272Y-113903780D03*
%TD*%
D16*
%TO.P,U5,20,VDD*%
%TO.N,+3V3*%
X270546000Y-143054000D03*
%TO.P,U5,19,LED7/ELE11*%
%TO.N,unconnected-(U5-Pad19)*%
X278166000Y-125274000D03*
%TO.P,U5,18,LED6/ELE10*%
%TO.N,unconnected-(U5-Pad18)*%
X275626000Y-125274000D03*
%TO.P,U5,17,LED5/ELE9*%
%TO.N,unconnected-(U5-Pad17)*%
X273086000Y-125274000D03*
%TO.P,U5,16,LED4/ELE8*%
%TO.N,unconnected-(U5-Pad16)*%
X270546000Y-125274000D03*
%TO.P,U5,15,LED3/ELE7*%
%TO.N,Net-(K32-Pad1)*%
X268006000Y-125274000D03*
%TO.P,U5,14,LED2/ELE6*%
%TO.N,Net-(K31-Pad1)*%
X265466000Y-125274000D03*
%TO.P,U5,13,LED1/ELE5*%
%TO.N,Net-(K30-Pad1)*%
X262926000Y-125274000D03*
%TO.P,U5,12,LED0/ELE4*%
%TO.N,Net-(K29-Pad1)*%
X260386000Y-125274000D03*
%TO.P,U5,11,ELE3*%
%TO.N,Net-(K28-Pad1)*%
X257846000Y-125274000D03*
%TO.P,U5,10,ELE2*%
%TO.N,Net-(K27-Pad1)*%
X255306000Y-125274000D03*
%TO.P,U5,9,ELE1*%
%TO.N,Net-(K26-Pad1)*%
X252766000Y-125274000D03*
D17*
%TO.P,U5,8,ELE0*%
%TO.N,Net-(K25-Pad1)*%
X250226000Y-125274000D03*
D16*
%TO.P,U5,6,VSS*%
%TO.N,GND*%
X257846000Y-143054000D03*
%TO.P,U5,4,ADDR*%
%TO.N,/SDA*%
X260386000Y-143054000D03*
%TO.P,U5,3,SDA*%
X262926000Y-143054000D03*
%TO.P,U5,2,SCL*%
%TO.N,/SCL*%
X265466000Y-143054000D03*
%TO.P,U5,1,~{IRQ}*%
%TO.N,unconnected-(U5-Pad1)*%
X268006000Y-143054000D03*
%TD*%
D20*
%TO.P,U1,TP3,TP3*%
%TO.N,Net-(U1-PadTP3)*%
X333866000Y-143074000D03*
%TO.P,U1,TP2,TP2*%
%TO.N,Net-(U1-PadTP2)*%
X333846000Y-141074000D03*
%TO.P,U1,TP1,TP1*%
%TO.N,GND*%
X330566000Y-142074000D03*
%TD*%
M02*
