%TF.GenerationSoftware,KiCad,Pcbnew,(6.0.7)*%
%TF.CreationDate,2023-08-09T20:53:38+08:00*%
%TF.ProjectId,chu_main,6368755f-6d61-4696-9e2e-6b696361645f,rev?*%
%TF.SameCoordinates,Original*%
%TF.FileFunction,Soldermask,Top*%
%TF.FilePolarity,Negative*%
%FSLAX46Y46*%
G04 Gerber Fmt 4.6, Leading zero omitted, Abs format (unit mm)*
G04 Created by KiCad (PCBNEW (6.0.7)) date 2023-08-09 20:53:38*
%MOMM*%
%LPD*%
G01*
G04 APERTURE LIST*
G04 Aperture macros list*
%AMRoundRect*
0 Rectangle with rounded corners*
0 $1 Rounding radius*
0 $2 $3 $4 $5 $6 $7 $8 $9 X,Y pos of 4 corners*
0 Add a 4 corners polygon primitive as box body*
4,1,4,$2,$3,$4,$5,$6,$7,$8,$9,$2,$3,0*
0 Add four circle primitives for the rounded corners*
1,1,$1+$1,$2,$3*
1,1,$1+$1,$4,$5*
1,1,$1+$1,$6,$7*
1,1,$1+$1,$8,$9*
0 Add four rect primitives between the rounded corners*
20,1,$1+$1,$2,$3,$4,$5,0*
20,1,$1+$1,$4,$5,$6,$7,0*
20,1,$1+$1,$6,$7,$8,$9,0*
20,1,$1+$1,$8,$9,$2,$3,0*%
%AMHorizOval*
0 Thick line with rounded ends*
0 $1 width*
0 $2 $3 position (X,Y) of the first rounded end (center of the circle)*
0 $4 $5 position (X,Y) of the second rounded end (center of the circle)*
0 Add line between two ends*
20,1,$1,$2,$3,$4,$5,0*
0 Add two circle primitives to create the rounded ends*
1,1,$1,$2,$3*
1,1,$1,$4,$5*%
G04 Aperture macros list end*
%ADD10RoundRect,0.110000X0.110000X0.640000X-0.110000X0.640000X-0.110000X-0.640000X0.110000X-0.640000X0*%
%ADD11O,2.000000X2.000000*%
%ADD12RoundRect,0.200000X-0.200000X-0.275000X0.200000X-0.275000X0.200000X0.275000X-0.200000X0.275000X0*%
%ADD13RoundRect,0.237500X-0.300000X-0.237500X0.300000X-0.237500X0.300000X0.237500X-0.300000X0.237500X0*%
%ADD14C,3.200000*%
%ADD15RoundRect,0.150000X-0.512500X-0.150000X0.512500X-0.150000X0.512500X0.150000X-0.512500X0.150000X0*%
%ADD16O,1.700000X1.700000*%
%ADD17R,1.700000X1.700000*%
%ADD18C,0.650000*%
%ADD19HorizOval,1.000000X-0.516831X-0.188111X0.516831X0.188111X0*%
%ADD20HorizOval,1.000000X-0.281908X-0.102606X0.281908X0.102606X0*%
%ADD21RoundRect,0.300000X0.950000X-0.450000X0.950000X0.450000X-0.950000X0.450000X-0.950000X-0.450000X0*%
G04 APERTURE END LIST*
D10*
%TO.C,D29*%
X310371000Y-62424000D03*
X309521000Y-62424000D03*
X308671000Y-62424000D03*
X307821000Y-62424000D03*
%TD*%
D11*
%TO.C,K32*%
X320296000Y-119074000D03*
X327096000Y-119074000D03*
%TD*%
D10*
%TO.C,D13*%
X193571000Y-62424000D03*
X192721000Y-62424000D03*
X191871000Y-62424000D03*
X191021000Y-62424000D03*
%TD*%
D12*
%TO.C,R20*%
X344821000Y-129584000D03*
X343171000Y-129584000D03*
%TD*%
D10*
%TO.C,D22*%
X259271000Y-59424000D03*
X258421000Y-59424000D03*
X257571000Y-59424000D03*
X256721000Y-59424000D03*
%TD*%
%TO.C,D1*%
X105971000Y-62424000D03*
X105121000Y-62424000D03*
X104271000Y-62424000D03*
X103421000Y-62424000D03*
%TD*%
D11*
%TO.C,K10*%
X159696000Y-119074000D03*
X166496000Y-119074000D03*
%TD*%
D10*
%TO.C,D25*%
X281171000Y-62424000D03*
X280321000Y-62424000D03*
X279471000Y-62424000D03*
X278621000Y-62424000D03*
%TD*%
%TO.C,D26*%
X288471000Y-59424000D03*
X287621000Y-59424000D03*
X286771000Y-59424000D03*
X285921000Y-59424000D03*
%TD*%
%TO.C,D2*%
X113271000Y-59424000D03*
X112421000Y-59424000D03*
X111571000Y-59424000D03*
X110721000Y-59424000D03*
%TD*%
%TO.C,D14*%
X200871000Y-59424000D03*
X200021000Y-59424000D03*
X199171000Y-59424000D03*
X198321000Y-59424000D03*
%TD*%
D12*
%TO.C,R4*%
X105021000Y-147074000D03*
X103371000Y-147074000D03*
%TD*%
D10*
%TO.C,D24*%
X273871000Y-59424000D03*
X273021000Y-59424000D03*
X272171000Y-59424000D03*
X271321000Y-59424000D03*
%TD*%
D13*
%TO.C,C2*%
X180058500Y-127074000D03*
X178333500Y-127074000D03*
%TD*%
D11*
%TO.C,K8*%
X145096000Y-119074000D03*
X151896000Y-119074000D03*
%TD*%
D10*
%TO.C,D15*%
X208171000Y-62424000D03*
X207321000Y-62424000D03*
X206471000Y-62424000D03*
X205621000Y-62424000D03*
%TD*%
%TO.C,D9*%
X164371000Y-62424000D03*
X163521000Y-62424000D03*
X162671000Y-62424000D03*
X161821000Y-62424000D03*
%TD*%
D11*
%TO.C,K2*%
X101296000Y-119074000D03*
X108096000Y-119074000D03*
%TD*%
D10*
%TO.C,D19*%
X237371000Y-62424000D03*
X236521000Y-62424000D03*
X235671000Y-62424000D03*
X234821000Y-62424000D03*
%TD*%
%TO.C,D4*%
X127871000Y-59424000D03*
X127021000Y-59424000D03*
X126171000Y-59424000D03*
X125321000Y-59424000D03*
%TD*%
%TO.C,D7*%
X149771000Y-62424000D03*
X148921000Y-62424000D03*
X148071000Y-62424000D03*
X147221000Y-62424000D03*
%TD*%
D13*
%TO.C,C4*%
X168018500Y-147924000D03*
X166293500Y-147924000D03*
%TD*%
D10*
%TO.C,D18*%
X230071000Y-59424000D03*
X229221000Y-59424000D03*
X228371000Y-59424000D03*
X227521000Y-59424000D03*
%TD*%
D11*
%TO.C,K30*%
X305696000Y-119074000D03*
X312496000Y-119074000D03*
%TD*%
D10*
%TO.C,D20*%
X244671000Y-59424000D03*
X243821000Y-59424000D03*
X242971000Y-59424000D03*
X242121000Y-59424000D03*
%TD*%
D11*
%TO.C,K4*%
X115896000Y-119074000D03*
X122696000Y-119074000D03*
%TD*%
%TO.C,K16*%
X203496000Y-119074000D03*
X210296000Y-119074000D03*
%TD*%
D10*
%TO.C,D8*%
X157071000Y-59424000D03*
X156221000Y-59424000D03*
X155371000Y-59424000D03*
X154521000Y-59424000D03*
%TD*%
D13*
%TO.C,C3*%
X185058500Y-147074000D03*
X183333500Y-147074000D03*
%TD*%
D12*
%TO.C,R21*%
X345021000Y-132074000D03*
X343371000Y-132074000D03*
%TD*%
D10*
%TO.C,D28*%
X303071000Y-59424000D03*
X302221000Y-59424000D03*
X301371000Y-59424000D03*
X300521000Y-59424000D03*
%TD*%
D11*
%TO.C,K24*%
X261896000Y-119074000D03*
X268696000Y-119074000D03*
%TD*%
%TO.C,K18*%
X218096000Y-119074000D03*
X224896000Y-119074000D03*
%TD*%
%TO.C,K6*%
X130496000Y-119074000D03*
X137296000Y-119074000D03*
%TD*%
D10*
%TO.C,D16*%
X215471000Y-59424000D03*
X214621000Y-59424000D03*
X213771000Y-59424000D03*
X212921000Y-59424000D03*
%TD*%
D13*
%TO.C,C6*%
X215058500Y-147074000D03*
X213333500Y-147074000D03*
%TD*%
D10*
%TO.C,D5*%
X135171000Y-62424000D03*
X134321000Y-62424000D03*
X133471000Y-62424000D03*
X132621000Y-62424000D03*
%TD*%
%TO.C,D12*%
X186271000Y-59424000D03*
X185421000Y-59424000D03*
X184571000Y-59424000D03*
X183721000Y-59424000D03*
%TD*%
D14*
%TO.C,SCR4*%
X339196000Y-147074000D03*
%TD*%
D11*
%TO.C,K20*%
X232696000Y-119074000D03*
X239496000Y-119074000D03*
%TD*%
D10*
%TO.C,D10*%
X171671000Y-59424000D03*
X170821000Y-59424000D03*
X169971000Y-59424000D03*
X169121000Y-59424000D03*
%TD*%
D11*
%TO.C,K22*%
X247296000Y-119074000D03*
X254096000Y-119074000D03*
%TD*%
D10*
%TO.C,D31*%
X324971000Y-62424000D03*
X324121000Y-62424000D03*
X323271000Y-62424000D03*
X322421000Y-62424000D03*
%TD*%
%TO.C,D21*%
X251971000Y-62424000D03*
X251121000Y-62424000D03*
X250271000Y-62424000D03*
X249421000Y-62424000D03*
%TD*%
%TO.C,D11*%
X178971000Y-62424000D03*
X178121000Y-62424000D03*
X177271000Y-62424000D03*
X176421000Y-62424000D03*
%TD*%
D13*
%TO.C,C7*%
X210708500Y-147074000D03*
X208983500Y-147074000D03*
%TD*%
D14*
%TO.C,SCR3*%
X89196000Y-147074000D03*
%TD*%
D10*
%TO.C,D6*%
X142471000Y-59424000D03*
X141621000Y-59424000D03*
X140771000Y-59424000D03*
X139921000Y-59424000D03*
%TD*%
D11*
%TO.C,K26*%
X276496000Y-119074000D03*
X283296000Y-119074000D03*
%TD*%
%TO.C,K28*%
X291096000Y-119074000D03*
X297896000Y-119074000D03*
%TD*%
D10*
%TO.C,D23*%
X266571000Y-62424000D03*
X265721000Y-62424000D03*
X264871000Y-62424000D03*
X264021000Y-62424000D03*
%TD*%
D11*
%TO.C,K14*%
X188896000Y-119074000D03*
X195696000Y-119074000D03*
%TD*%
D10*
%TO.C,D27*%
X295771000Y-62424000D03*
X294921000Y-62424000D03*
X294071000Y-62424000D03*
X293221000Y-62424000D03*
%TD*%
%TO.C,D3*%
X120571000Y-62424000D03*
X119721000Y-62424000D03*
X118871000Y-62424000D03*
X118021000Y-62424000D03*
%TD*%
D13*
%TO.C,C1*%
X185058500Y-142074000D03*
X183333500Y-142074000D03*
%TD*%
D14*
%TO.C,SCR2*%
X331196000Y-62074000D03*
%TD*%
D15*
%TO.C,U8*%
X110333500Y-151124000D03*
X110333500Y-153024000D03*
X108058500Y-153024000D03*
X108058500Y-152074000D03*
X108058500Y-151124000D03*
%TD*%
D11*
%TO.C,K12*%
X174296000Y-119074000D03*
X181096000Y-119074000D03*
%TD*%
D13*
%TO.C,C5*%
X175708500Y-127074000D03*
X173983500Y-127074000D03*
%TD*%
D10*
%TO.C,D17*%
X222771000Y-62424000D03*
X221921000Y-62424000D03*
X221071000Y-62424000D03*
X220221000Y-62424000D03*
%TD*%
D14*
%TO.C,SCR1*%
X97196000Y-62074000D03*
%TD*%
D10*
%TO.C,D30*%
X317671000Y-59424000D03*
X316821000Y-59424000D03*
X315971000Y-59424000D03*
X315121000Y-59424000D03*
%TD*%
D16*
%TO.C,U3*%
X140546000Y-141854000D03*
X148166000Y-124074000D03*
X145626000Y-124074000D03*
X143086000Y-124074000D03*
X140546000Y-124074000D03*
X138006000Y-124074000D03*
X135466000Y-124074000D03*
X132926000Y-124074000D03*
X130386000Y-124074000D03*
X127846000Y-124074000D03*
X125306000Y-124074000D03*
X122766000Y-124074000D03*
D17*
X120226000Y-124074000D03*
D16*
X127846000Y-141854000D03*
X130386000Y-141854000D03*
X132926000Y-141854000D03*
X135466000Y-141854000D03*
X138006000Y-141854000D03*
%TD*%
%TO.C,U4*%
X220546000Y-141854000D03*
X228166000Y-124074000D03*
X225626000Y-124074000D03*
X223086000Y-124074000D03*
X220546000Y-124074000D03*
X218006000Y-124074000D03*
X215466000Y-124074000D03*
X212926000Y-124074000D03*
X210386000Y-124074000D03*
X207846000Y-124074000D03*
X205306000Y-124074000D03*
X202766000Y-124074000D03*
D17*
X200226000Y-124074000D03*
D16*
X207846000Y-141854000D03*
X210386000Y-141854000D03*
X212926000Y-141854000D03*
X215466000Y-141854000D03*
X218006000Y-141854000D03*
%TD*%
D18*
%TO.C,USB1*%
X349311359Y-121927338D03*
X347334483Y-116495914D03*
D19*
X346347357Y-115333424D03*
X349302411Y-123452369D03*
D20*
X353230326Y-122022724D03*
X350275272Y-113903780D03*
%TD*%
D16*
%TO.C,U5*%
X270546000Y-143054000D03*
X278166000Y-125274000D03*
X275626000Y-125274000D03*
X273086000Y-125274000D03*
X270546000Y-125274000D03*
X268006000Y-125274000D03*
X265466000Y-125274000D03*
X262926000Y-125274000D03*
X260386000Y-125274000D03*
X257846000Y-125274000D03*
X255306000Y-125274000D03*
X252766000Y-125274000D03*
D17*
X250226000Y-125274000D03*
D16*
X257846000Y-143054000D03*
X260386000Y-143054000D03*
X262926000Y-143054000D03*
X265466000Y-143054000D03*
X268006000Y-143054000D03*
%TD*%
D21*
%TO.C,U1*%
X333866000Y-143074000D03*
X333846000Y-141074000D03*
X330566000Y-142074000D03*
%TD*%
M02*
