%TF.GenerationSoftware,KiCad,Pcbnew,(6.0.7)*%
%TF.CreationDate,2023-08-09T20:53:38+08:00*%
%TF.ProjectId,chu_main,6368755f-6d61-4696-9e2e-6b696361645f,rev?*%
%TF.SameCoordinates,Original*%
%TF.FileFunction,Soldermask,Bot*%
%TF.FilePolarity,Negative*%
%FSLAX46Y46*%
G04 Gerber Fmt 4.6, Leading zero omitted, Abs format (unit mm)*
G04 Created by KiCad (PCBNEW (6.0.7)) date 2023-08-09 20:53:38*
%MOMM*%
%LPD*%
G01*
G04 APERTURE LIST*
G04 Aperture macros list*
%AMRoundRect*
0 Rectangle with rounded corners*
0 $1 Rounding radius*
0 $2 $3 $4 $5 $6 $7 $8 $9 X,Y pos of 4 corners*
0 Add a 4 corners polygon primitive as box body*
4,1,4,$2,$3,$4,$5,$6,$7,$8,$9,$2,$3,0*
0 Add four circle primitives for the rounded corners*
1,1,$1+$1,$2,$3*
1,1,$1+$1,$4,$5*
1,1,$1+$1,$6,$7*
1,1,$1+$1,$8,$9*
0 Add four rect primitives between the rounded corners*
20,1,$1+$1,$2,$3,$4,$5,0*
20,1,$1+$1,$4,$5,$6,$7,0*
20,1,$1+$1,$6,$7,$8,$9,0*
20,1,$1+$1,$8,$9,$2,$3,0*%
%AMHorizOval*
0 Thick line with rounded ends*
0 $1 width*
0 $2 $3 position (X,Y) of the first rounded end (center of the circle)*
0 $4 $5 position (X,Y) of the second rounded end (center of the circle)*
0 Add line between two ends*
20,1,$1,$2,$3,$4,$5,0*
0 Add two circle primitives to create the rounded ends*
1,1,$1,$2,$3*
1,1,$1,$4,$5*%
%AMRotRect*
0 Rectangle, with rotation*
0 The origin of the aperture is its center*
0 $1 length*
0 $2 width*
0 $3 Rotation angle, in degrees counterclockwise*
0 Add horizontal line*
21,1,$1,$2,0,0,$3*%
G04 Aperture macros list end*
%ADD10O,2.000000X2.000000*%
%ADD11C,3.200000*%
%ADD12O,1.700000X1.700000*%
%ADD13R,1.700000X1.700000*%
%ADD14C,0.650000*%
%ADD15RotRect,0.600000X1.450000X290.000000*%
%ADD16RotRect,0.300000X1.450000X290.000000*%
%ADD17HorizOval,1.000000X-0.516831X-0.188111X0.516831X0.188111X0*%
%ADD18HorizOval,1.000000X-0.281908X-0.102606X0.281908X0.102606X0*%
%ADD19RoundRect,0.300000X0.950000X-0.450000X0.950000X0.450000X-0.950000X0.450000X-0.950000X-0.450000X0*%
%ADD20R,3.500000X1.700000*%
%ADD21R,1.700000X3.500000*%
G04 APERTURE END LIST*
D10*
%TO.C,K32*%
X320296000Y-119074000D03*
X327096000Y-119074000D03*
%TD*%
%TO.C,K10*%
X159696000Y-119074000D03*
X166496000Y-119074000D03*
%TD*%
%TO.C,K8*%
X145096000Y-119074000D03*
X151896000Y-119074000D03*
%TD*%
%TO.C,K2*%
X101296000Y-119074000D03*
X108096000Y-119074000D03*
%TD*%
%TO.C,K30*%
X305696000Y-119074000D03*
X312496000Y-119074000D03*
%TD*%
%TO.C,K4*%
X115896000Y-119074000D03*
X122696000Y-119074000D03*
%TD*%
%TO.C,K16*%
X203496000Y-119074000D03*
X210296000Y-119074000D03*
%TD*%
%TO.C,K24*%
X261896000Y-119074000D03*
X268696000Y-119074000D03*
%TD*%
%TO.C,K18*%
X218096000Y-119074000D03*
X224896000Y-119074000D03*
%TD*%
%TO.C,K6*%
X130496000Y-119074000D03*
X137296000Y-119074000D03*
%TD*%
D11*
%TO.C,SCR4*%
X339196000Y-147074000D03*
%TD*%
D10*
%TO.C,K20*%
X232696000Y-119074000D03*
X239496000Y-119074000D03*
%TD*%
%TO.C,K22*%
X247296000Y-119074000D03*
X254096000Y-119074000D03*
%TD*%
D11*
%TO.C,SCR3*%
X89196000Y-147074000D03*
%TD*%
D10*
%TO.C,K26*%
X276496000Y-119074000D03*
X283296000Y-119074000D03*
%TD*%
%TO.C,K28*%
X291096000Y-119074000D03*
X297896000Y-119074000D03*
%TD*%
%TO.C,K14*%
X188896000Y-119074000D03*
X195696000Y-119074000D03*
%TD*%
D11*
%TO.C,SCR2*%
X331196000Y-62074000D03*
%TD*%
D10*
%TO.C,K12*%
X174296000Y-119074000D03*
X181096000Y-119074000D03*
%TD*%
D11*
%TO.C,SCR1*%
X97196000Y-62074000D03*
%TD*%
D12*
%TO.C,U3*%
X140546000Y-141854000D03*
X148166000Y-124074000D03*
X145626000Y-124074000D03*
X143086000Y-124074000D03*
X140546000Y-124074000D03*
X138006000Y-124074000D03*
X135466000Y-124074000D03*
X132926000Y-124074000D03*
X130386000Y-124074000D03*
X127846000Y-124074000D03*
X125306000Y-124074000D03*
X122766000Y-124074000D03*
D13*
X120226000Y-124074000D03*
D12*
X127846000Y-141854000D03*
X130386000Y-141854000D03*
X132926000Y-141854000D03*
X135466000Y-141854000D03*
X138006000Y-141854000D03*
%TD*%
%TO.C,U4*%
X220546000Y-141854000D03*
X228166000Y-124074000D03*
X225626000Y-124074000D03*
X223086000Y-124074000D03*
X220546000Y-124074000D03*
X218006000Y-124074000D03*
X215466000Y-124074000D03*
X212926000Y-124074000D03*
X210386000Y-124074000D03*
X207846000Y-124074000D03*
X205306000Y-124074000D03*
X202766000Y-124074000D03*
D13*
X200226000Y-124074000D03*
D12*
X207846000Y-141854000D03*
X210386000Y-141854000D03*
X212926000Y-141854000D03*
X215466000Y-141854000D03*
X218006000Y-141854000D03*
%TD*%
D14*
%TO.C,USB1*%
X349311359Y-121927338D03*
X347334483Y-116495914D03*
D15*
X345862050Y-116675336D03*
X346127116Y-117403598D03*
D16*
X346366530Y-118061383D03*
X346537540Y-118531229D03*
X346708550Y-119001076D03*
X346879560Y-119470922D03*
X347050570Y-119940768D03*
X347221580Y-120410614D03*
X347392590Y-120880461D03*
X347563601Y-121350307D03*
D15*
X347803015Y-122008092D03*
X348068080Y-122736354D03*
D17*
X346347357Y-115333424D03*
X349302411Y-123452369D03*
D18*
X353230326Y-122022724D03*
X350275272Y-113903780D03*
%TD*%
D12*
%TO.C,U5*%
X270546000Y-143054000D03*
X278166000Y-125274000D03*
X275626000Y-125274000D03*
X273086000Y-125274000D03*
X270546000Y-125274000D03*
X268006000Y-125274000D03*
X265466000Y-125274000D03*
X262926000Y-125274000D03*
X260386000Y-125274000D03*
X257846000Y-125274000D03*
X255306000Y-125274000D03*
X252766000Y-125274000D03*
D13*
X250226000Y-125274000D03*
D12*
X257846000Y-143054000D03*
X260386000Y-143054000D03*
X262926000Y-143054000D03*
X265466000Y-143054000D03*
X268006000Y-143054000D03*
%TD*%
D19*
%TO.C,U1*%
X333866000Y-143074000D03*
X333846000Y-141074000D03*
X330566000Y-142074000D03*
D20*
X284396000Y-139534000D03*
X284396000Y-142074000D03*
X284396000Y-144614000D03*
D21*
X333326000Y-132274000D03*
X330786000Y-132274000D03*
X328246000Y-132274000D03*
X325706000Y-132274000D03*
X323166000Y-132274000D03*
X320626000Y-132274000D03*
X318086000Y-132274000D03*
X315546000Y-132274000D03*
X313006000Y-132274000D03*
X310466000Y-132274000D03*
X307926000Y-132274000D03*
X305386000Y-132274000D03*
X302846000Y-132274000D03*
X300306000Y-132274000D03*
X297766000Y-132274000D03*
X295226000Y-132274000D03*
X292686000Y-132274000D03*
X290146000Y-132274000D03*
X287606000Y-132274000D03*
X285066000Y-132274000D03*
X285066000Y-151874000D03*
X287606000Y-151874000D03*
X290146000Y-151874000D03*
X292686000Y-151874000D03*
X295226000Y-151874000D03*
X297766000Y-151874000D03*
X300306000Y-151874000D03*
X302846000Y-151874000D03*
X305386000Y-151874000D03*
X307926000Y-151874000D03*
X310466000Y-151874000D03*
X313006000Y-151874000D03*
X315546000Y-151874000D03*
X318086000Y-151874000D03*
X320626000Y-151874000D03*
X323166000Y-151874000D03*
X325706000Y-151874000D03*
X328246000Y-151874000D03*
X330786000Y-151874000D03*
X333326000Y-151874000D03*
%TD*%
M02*
