%TF.GenerationSoftware,KiCad,Pcbnew,(6.0.7)*%
%TF.CreationDate,2023-08-09T20:53:38+08:00*%
%TF.ProjectId,chu_main,6368755f-6d61-4696-9e2e-6b696361645f,rev?*%
%TF.SameCoordinates,Original*%
%TF.FileFunction,Legend,Top*%
%TF.FilePolarity,Positive*%
%FSLAX46Y46*%
G04 Gerber Fmt 4.6, Leading zero omitted, Abs format (unit mm)*
G04 Created by KiCad (PCBNEW (6.0.7)) date 2023-08-09 20:53:38*
%MOMM*%
%LPD*%
G01*
G04 APERTURE LIST*
G04 Aperture macros list*
%AMRoundRect*
0 Rectangle with rounded corners*
0 $1 Rounding radius*
0 $2 $3 $4 $5 $6 $7 $8 $9 X,Y pos of 4 corners*
0 Add a 4 corners polygon primitive as box body*
4,1,4,$2,$3,$4,$5,$6,$7,$8,$9,$2,$3,0*
0 Add four circle primitives for the rounded corners*
1,1,$1+$1,$2,$3*
1,1,$1+$1,$4,$5*
1,1,$1+$1,$6,$7*
1,1,$1+$1,$8,$9*
0 Add four rect primitives between the rounded corners*
20,1,$1+$1,$2,$3,$4,$5,0*
20,1,$1+$1,$4,$5,$6,$7,0*
20,1,$1+$1,$6,$7,$8,$9,0*
20,1,$1+$1,$8,$9,$2,$3,0*%
%AMHorizOval*
0 Thick line with rounded ends*
0 $1 width*
0 $2 $3 position (X,Y) of the first rounded end (center of the circle)*
0 $4 $5 position (X,Y) of the second rounded end (center of the circle)*
0 Add line between two ends*
20,1,$1,$2,$3,$4,$5,0*
0 Add two circle primitives to create the rounded ends*
1,1,$1,$2,$3*
1,1,$1,$4,$5*%
G04 Aperture macros list end*
%ADD10C,0.150000*%
%ADD11C,0.120000*%
%ADD12C,0.200000*%
%ADD13RoundRect,0.257692X6.442308X11.342308X-6.442308X11.342308X-6.442308X-11.342308X6.442308X-11.342308X0*%
%ADD14RoundRect,0.257692X-6.442308X-11.342308X6.442308X-11.342308X6.442308X11.342308X-6.442308X11.342308X0*%
%ADD15RoundRect,0.110000X0.110000X0.640000X-0.110000X0.640000X-0.110000X-0.640000X0.110000X-0.640000X0*%
%ADD16O,2.000000X2.000000*%
%ADD17RoundRect,0.200000X-0.200000X-0.275000X0.200000X-0.275000X0.200000X0.275000X-0.200000X0.275000X0*%
%ADD18RoundRect,0.237500X-0.300000X-0.237500X0.300000X-0.237500X0.300000X0.237500X-0.300000X0.237500X0*%
%ADD19C,3.200000*%
%ADD20RoundRect,0.150000X-0.512500X-0.150000X0.512500X-0.150000X0.512500X0.150000X-0.512500X0.150000X0*%
%ADD21O,1.700000X1.700000*%
%ADD22R,1.700000X1.700000*%
%ADD23C,0.650000*%
%ADD24HorizOval,1.000000X-0.516831X-0.188111X0.516831X0.188111X0*%
%ADD25HorizOval,1.000000X-0.281908X-0.102606X0.281908X0.102606X0*%
%ADD26RoundRect,0.300000X0.950000X-0.450000X0.950000X0.450000X-0.950000X0.450000X-0.950000X-0.450000X0*%
G04 APERTURE END LIST*
D10*
%TO.C,R20*%
X343353142Y-128606380D02*
X343019809Y-128130190D01*
X342781714Y-128606380D02*
X342781714Y-127606380D01*
X343162666Y-127606380D01*
X343257904Y-127654000D01*
X343305523Y-127701619D01*
X343353142Y-127796857D01*
X343353142Y-127939714D01*
X343305523Y-128034952D01*
X343257904Y-128082571D01*
X343162666Y-128130190D01*
X342781714Y-128130190D01*
X343734095Y-127701619D02*
X343781714Y-127654000D01*
X343876952Y-127606380D01*
X344115047Y-127606380D01*
X344210285Y-127654000D01*
X344257904Y-127701619D01*
X344305523Y-127796857D01*
X344305523Y-127892095D01*
X344257904Y-128034952D01*
X343686476Y-128606380D01*
X344305523Y-128606380D01*
X344924571Y-127606380D02*
X345019809Y-127606380D01*
X345115047Y-127654000D01*
X345162666Y-127701619D01*
X345210285Y-127796857D01*
X345257904Y-127987333D01*
X345257904Y-128225428D01*
X345210285Y-128415904D01*
X345162666Y-128511142D01*
X345115047Y-128558761D01*
X345019809Y-128606380D01*
X344924571Y-128606380D01*
X344829333Y-128558761D01*
X344781714Y-128511142D01*
X344734095Y-128415904D01*
X344686476Y-128225428D01*
X344686476Y-127987333D01*
X344734095Y-127796857D01*
X344781714Y-127701619D01*
X344829333Y-127654000D01*
X344924571Y-127606380D01*
%TO.C,R4*%
X104029333Y-146096380D02*
X103696000Y-145620190D01*
X103457904Y-146096380D02*
X103457904Y-145096380D01*
X103838857Y-145096380D01*
X103934095Y-145144000D01*
X103981714Y-145191619D01*
X104029333Y-145286857D01*
X104029333Y-145429714D01*
X103981714Y-145524952D01*
X103934095Y-145572571D01*
X103838857Y-145620190D01*
X103457904Y-145620190D01*
X104886476Y-145429714D02*
X104886476Y-146096380D01*
X104648380Y-145048761D02*
X104410285Y-145763047D01*
X105029333Y-145763047D01*
%TO.C,C2*%
X179029333Y-126001142D02*
X178981714Y-126048761D01*
X178838857Y-126096380D01*
X178743619Y-126096380D01*
X178600761Y-126048761D01*
X178505523Y-125953523D01*
X178457904Y-125858285D01*
X178410285Y-125667809D01*
X178410285Y-125524952D01*
X178457904Y-125334476D01*
X178505523Y-125239238D01*
X178600761Y-125144000D01*
X178743619Y-125096380D01*
X178838857Y-125096380D01*
X178981714Y-125144000D01*
X179029333Y-125191619D01*
X179410285Y-125191619D02*
X179457904Y-125144000D01*
X179553142Y-125096380D01*
X179791238Y-125096380D01*
X179886476Y-125144000D01*
X179934095Y-125191619D01*
X179981714Y-125286857D01*
X179981714Y-125382095D01*
X179934095Y-125524952D01*
X179362666Y-126096380D01*
X179981714Y-126096380D01*
%TO.C,C4*%
X166989333Y-146851142D02*
X166941714Y-146898761D01*
X166798857Y-146946380D01*
X166703619Y-146946380D01*
X166560761Y-146898761D01*
X166465523Y-146803523D01*
X166417904Y-146708285D01*
X166370285Y-146517809D01*
X166370285Y-146374952D01*
X166417904Y-146184476D01*
X166465523Y-146089238D01*
X166560761Y-145994000D01*
X166703619Y-145946380D01*
X166798857Y-145946380D01*
X166941714Y-145994000D01*
X166989333Y-146041619D01*
X167846476Y-146279714D02*
X167846476Y-146946380D01*
X167608380Y-145898761D02*
X167370285Y-146613047D01*
X167989333Y-146613047D01*
%TO.C,C3*%
X184029333Y-146001142D02*
X183981714Y-146048761D01*
X183838857Y-146096380D01*
X183743619Y-146096380D01*
X183600761Y-146048761D01*
X183505523Y-145953523D01*
X183457904Y-145858285D01*
X183410285Y-145667809D01*
X183410285Y-145524952D01*
X183457904Y-145334476D01*
X183505523Y-145239238D01*
X183600761Y-145144000D01*
X183743619Y-145096380D01*
X183838857Y-145096380D01*
X183981714Y-145144000D01*
X184029333Y-145191619D01*
X184362666Y-145096380D02*
X184981714Y-145096380D01*
X184648380Y-145477333D01*
X184791238Y-145477333D01*
X184886476Y-145524952D01*
X184934095Y-145572571D01*
X184981714Y-145667809D01*
X184981714Y-145905904D01*
X184934095Y-146001142D01*
X184886476Y-146048761D01*
X184791238Y-146096380D01*
X184505523Y-146096380D01*
X184410285Y-146048761D01*
X184362666Y-146001142D01*
%TO.C,R21*%
X343553142Y-131096380D02*
X343219809Y-130620190D01*
X342981714Y-131096380D02*
X342981714Y-130096380D01*
X343362666Y-130096380D01*
X343457904Y-130144000D01*
X343505523Y-130191619D01*
X343553142Y-130286857D01*
X343553142Y-130429714D01*
X343505523Y-130524952D01*
X343457904Y-130572571D01*
X343362666Y-130620190D01*
X342981714Y-130620190D01*
X343934095Y-130191619D02*
X343981714Y-130144000D01*
X344076952Y-130096380D01*
X344315047Y-130096380D01*
X344410285Y-130144000D01*
X344457904Y-130191619D01*
X344505523Y-130286857D01*
X344505523Y-130382095D01*
X344457904Y-130524952D01*
X343886476Y-131096380D01*
X344505523Y-131096380D01*
X345457904Y-131096380D02*
X344886476Y-131096380D01*
X345172190Y-131096380D02*
X345172190Y-130096380D01*
X345076952Y-130239238D01*
X344981714Y-130334476D01*
X344886476Y-130382095D01*
%TO.C,C6*%
X214029333Y-146001142D02*
X213981714Y-146048761D01*
X213838857Y-146096380D01*
X213743619Y-146096380D01*
X213600761Y-146048761D01*
X213505523Y-145953523D01*
X213457904Y-145858285D01*
X213410285Y-145667809D01*
X213410285Y-145524952D01*
X213457904Y-145334476D01*
X213505523Y-145239238D01*
X213600761Y-145144000D01*
X213743619Y-145096380D01*
X213838857Y-145096380D01*
X213981714Y-145144000D01*
X214029333Y-145191619D01*
X214886476Y-145096380D02*
X214696000Y-145096380D01*
X214600761Y-145144000D01*
X214553142Y-145191619D01*
X214457904Y-145334476D01*
X214410285Y-145524952D01*
X214410285Y-145905904D01*
X214457904Y-146001142D01*
X214505523Y-146048761D01*
X214600761Y-146096380D01*
X214791238Y-146096380D01*
X214886476Y-146048761D01*
X214934095Y-146001142D01*
X214981714Y-145905904D01*
X214981714Y-145667809D01*
X214934095Y-145572571D01*
X214886476Y-145524952D01*
X214791238Y-145477333D01*
X214600761Y-145477333D01*
X214505523Y-145524952D01*
X214457904Y-145572571D01*
X214410285Y-145667809D01*
%TO.C,C7*%
X209679333Y-146001142D02*
X209631714Y-146048761D01*
X209488857Y-146096380D01*
X209393619Y-146096380D01*
X209250761Y-146048761D01*
X209155523Y-145953523D01*
X209107904Y-145858285D01*
X209060285Y-145667809D01*
X209060285Y-145524952D01*
X209107904Y-145334476D01*
X209155523Y-145239238D01*
X209250761Y-145144000D01*
X209393619Y-145096380D01*
X209488857Y-145096380D01*
X209631714Y-145144000D01*
X209679333Y-145191619D01*
X210012666Y-145096380D02*
X210679333Y-145096380D01*
X210250761Y-146096380D01*
%TO.C,C1*%
X184029333Y-141001142D02*
X183981714Y-141048761D01*
X183838857Y-141096380D01*
X183743619Y-141096380D01*
X183600761Y-141048761D01*
X183505523Y-140953523D01*
X183457904Y-140858285D01*
X183410285Y-140667809D01*
X183410285Y-140524952D01*
X183457904Y-140334476D01*
X183505523Y-140239238D01*
X183600761Y-140144000D01*
X183743619Y-140096380D01*
X183838857Y-140096380D01*
X183981714Y-140144000D01*
X184029333Y-140191619D01*
X184981714Y-141096380D02*
X184410285Y-141096380D01*
X184696000Y-141096380D02*
X184696000Y-140096380D01*
X184600761Y-140239238D01*
X184505523Y-140334476D01*
X184410285Y-140382095D01*
%TO.C,U8*%
X108434095Y-149126380D02*
X108434095Y-149935904D01*
X108481714Y-150031142D01*
X108529333Y-150078761D01*
X108624571Y-150126380D01*
X108815047Y-150126380D01*
X108910285Y-150078761D01*
X108957904Y-150031142D01*
X109005523Y-149935904D01*
X109005523Y-149126380D01*
X109624571Y-149554952D02*
X109529333Y-149507333D01*
X109481714Y-149459714D01*
X109434095Y-149364476D01*
X109434095Y-149316857D01*
X109481714Y-149221619D01*
X109529333Y-149174000D01*
X109624571Y-149126380D01*
X109815047Y-149126380D01*
X109910285Y-149174000D01*
X109957904Y-149221619D01*
X110005523Y-149316857D01*
X110005523Y-149364476D01*
X109957904Y-149459714D01*
X109910285Y-149507333D01*
X109815047Y-149554952D01*
X109624571Y-149554952D01*
X109529333Y-149602571D01*
X109481714Y-149650190D01*
X109434095Y-149745428D01*
X109434095Y-149935904D01*
X109481714Y-150031142D01*
X109529333Y-150078761D01*
X109624571Y-150126380D01*
X109815047Y-150126380D01*
X109910285Y-150078761D01*
X109957904Y-150031142D01*
X110005523Y-149935904D01*
X110005523Y-149745428D01*
X109957904Y-149650190D01*
X109910285Y-149602571D01*
X109815047Y-149554952D01*
%TO.C,C5*%
X174679333Y-126001142D02*
X174631714Y-126048761D01*
X174488857Y-126096380D01*
X174393619Y-126096380D01*
X174250761Y-126048761D01*
X174155523Y-125953523D01*
X174107904Y-125858285D01*
X174060285Y-125667809D01*
X174060285Y-125524952D01*
X174107904Y-125334476D01*
X174155523Y-125239238D01*
X174250761Y-125144000D01*
X174393619Y-125096380D01*
X174488857Y-125096380D01*
X174631714Y-125144000D01*
X174679333Y-125191619D01*
X175584095Y-125096380D02*
X175107904Y-125096380D01*
X175060285Y-125572571D01*
X175107904Y-125524952D01*
X175203142Y-125477333D01*
X175441238Y-125477333D01*
X175536476Y-125524952D01*
X175584095Y-125572571D01*
X175631714Y-125667809D01*
X175631714Y-125905904D01*
X175584095Y-126001142D01*
X175536476Y-126048761D01*
X175441238Y-126096380D01*
X175203142Y-126096380D01*
X175107904Y-126048761D01*
X175060285Y-126001142D01*
%TO.C,D29*%
X307560152Y-63397504D02*
G75*
G03*
X307560152Y-63397504I-75000J0D01*
G01*
X310446000Y-63574000D02*
X307746000Y-63574000D01*
X307196000Y-62324000D02*
X307496000Y-62324000D01*
X307196000Y-63824000D02*
X307496000Y-63824000D01*
X310446000Y-63574000D02*
X310996000Y-63024000D01*
X310696000Y-63824000D02*
X310446000Y-63574000D01*
X307496000Y-63824000D02*
X307746000Y-63574000D01*
X307196000Y-63824000D02*
X307196000Y-62324000D01*
X310996000Y-62324000D02*
X310996000Y-63824000D01*
X310996000Y-62324000D02*
X310696000Y-62324000D01*
X310996000Y-63824000D02*
X310696000Y-63824000D01*
%TO.C,D13*%
X190760152Y-63397504D02*
G75*
G03*
X190760152Y-63397504I-75000J0D01*
G01*
X193646000Y-63574000D02*
X190946000Y-63574000D01*
X190396000Y-62324000D02*
X190696000Y-62324000D01*
X190396000Y-63824000D02*
X190696000Y-63824000D01*
X193646000Y-63574000D02*
X194196000Y-63024000D01*
X193896000Y-63824000D02*
X193646000Y-63574000D01*
X190696000Y-63824000D02*
X190946000Y-63574000D01*
X190396000Y-63824000D02*
X190396000Y-62324000D01*
X194196000Y-62324000D02*
X194196000Y-63824000D01*
X194196000Y-62324000D02*
X193896000Y-62324000D01*
X194196000Y-63824000D02*
X193896000Y-63824000D01*
D11*
%TO.C,R20*%
X343758742Y-129061500D02*
X344233258Y-129061500D01*
X343758742Y-130106500D02*
X344233258Y-130106500D01*
D10*
%TO.C,D22*%
X256460152Y-60397504D02*
G75*
G03*
X256460152Y-60397504I-75000J0D01*
G01*
X259346000Y-60574000D02*
X256646000Y-60574000D01*
X256096000Y-59324000D02*
X256396000Y-59324000D01*
X256096000Y-60824000D02*
X256396000Y-60824000D01*
X259346000Y-60574000D02*
X259896000Y-60024000D01*
X259596000Y-60824000D02*
X259346000Y-60574000D01*
X256396000Y-60824000D02*
X256646000Y-60574000D01*
X256096000Y-60824000D02*
X256096000Y-59324000D01*
X259896000Y-59324000D02*
X259896000Y-60824000D01*
X259896000Y-59324000D02*
X259596000Y-59324000D01*
X259896000Y-60824000D02*
X259596000Y-60824000D01*
%TO.C,D1*%
X103160152Y-63397504D02*
G75*
G03*
X103160152Y-63397504I-75000J0D01*
G01*
X106046000Y-63574000D02*
X103346000Y-63574000D01*
X102796000Y-62324000D02*
X103096000Y-62324000D01*
X102796000Y-63824000D02*
X103096000Y-63824000D01*
X106046000Y-63574000D02*
X106596000Y-63024000D01*
X106296000Y-63824000D02*
X106046000Y-63574000D01*
X103096000Y-63824000D02*
X103346000Y-63574000D01*
X102796000Y-63824000D02*
X102796000Y-62324000D01*
X106596000Y-62324000D02*
X106596000Y-63824000D01*
X106596000Y-62324000D02*
X106296000Y-62324000D01*
X106596000Y-63824000D02*
X106296000Y-63824000D01*
%TO.C,D25*%
X278360152Y-63397504D02*
G75*
G03*
X278360152Y-63397504I-75000J0D01*
G01*
X281246000Y-63574000D02*
X278546000Y-63574000D01*
X277996000Y-62324000D02*
X278296000Y-62324000D01*
X277996000Y-63824000D02*
X278296000Y-63824000D01*
X281246000Y-63574000D02*
X281796000Y-63024000D01*
X281496000Y-63824000D02*
X281246000Y-63574000D01*
X278296000Y-63824000D02*
X278546000Y-63574000D01*
X277996000Y-63824000D02*
X277996000Y-62324000D01*
X281796000Y-62324000D02*
X281796000Y-63824000D01*
X281796000Y-62324000D02*
X281496000Y-62324000D01*
X281796000Y-63824000D02*
X281496000Y-63824000D01*
%TO.C,D26*%
X285660152Y-60397504D02*
G75*
G03*
X285660152Y-60397504I-75000J0D01*
G01*
X288546000Y-60574000D02*
X285846000Y-60574000D01*
X285296000Y-59324000D02*
X285596000Y-59324000D01*
X285296000Y-60824000D02*
X285596000Y-60824000D01*
X288546000Y-60574000D02*
X289096000Y-60024000D01*
X288796000Y-60824000D02*
X288546000Y-60574000D01*
X285596000Y-60824000D02*
X285846000Y-60574000D01*
X285296000Y-60824000D02*
X285296000Y-59324000D01*
X289096000Y-59324000D02*
X289096000Y-60824000D01*
X289096000Y-59324000D02*
X288796000Y-59324000D01*
X289096000Y-60824000D02*
X288796000Y-60824000D01*
%TO.C,D2*%
X110460152Y-60397504D02*
G75*
G03*
X110460152Y-60397504I-75000J0D01*
G01*
X113346000Y-60574000D02*
X110646000Y-60574000D01*
X110096000Y-59324000D02*
X110396000Y-59324000D01*
X110096000Y-60824000D02*
X110396000Y-60824000D01*
X113346000Y-60574000D02*
X113896000Y-60024000D01*
X113596000Y-60824000D02*
X113346000Y-60574000D01*
X110396000Y-60824000D02*
X110646000Y-60574000D01*
X110096000Y-60824000D02*
X110096000Y-59324000D01*
X113896000Y-59324000D02*
X113896000Y-60824000D01*
X113896000Y-59324000D02*
X113596000Y-59324000D01*
X113896000Y-60824000D02*
X113596000Y-60824000D01*
%TO.C,D14*%
X198060152Y-60397504D02*
G75*
G03*
X198060152Y-60397504I-75000J0D01*
G01*
X200946000Y-60574000D02*
X198246000Y-60574000D01*
X197696000Y-59324000D02*
X197996000Y-59324000D01*
X197696000Y-60824000D02*
X197996000Y-60824000D01*
X200946000Y-60574000D02*
X201496000Y-60024000D01*
X201196000Y-60824000D02*
X200946000Y-60574000D01*
X197996000Y-60824000D02*
X198246000Y-60574000D01*
X197696000Y-60824000D02*
X197696000Y-59324000D01*
X201496000Y-59324000D02*
X201496000Y-60824000D01*
X201496000Y-59324000D02*
X201196000Y-59324000D01*
X201496000Y-60824000D02*
X201196000Y-60824000D01*
D11*
%TO.C,R4*%
X103958742Y-146551500D02*
X104433258Y-146551500D01*
X103958742Y-147596500D02*
X104433258Y-147596500D01*
D10*
%TO.C,D24*%
X271060152Y-60397504D02*
G75*
G03*
X271060152Y-60397504I-75000J0D01*
G01*
X273946000Y-60574000D02*
X271246000Y-60574000D01*
X270696000Y-59324000D02*
X270996000Y-59324000D01*
X270696000Y-60824000D02*
X270996000Y-60824000D01*
X273946000Y-60574000D02*
X274496000Y-60024000D01*
X274196000Y-60824000D02*
X273946000Y-60574000D01*
X270996000Y-60824000D02*
X271246000Y-60574000D01*
X270696000Y-60824000D02*
X270696000Y-59324000D01*
X274496000Y-59324000D02*
X274496000Y-60824000D01*
X274496000Y-59324000D02*
X274196000Y-59324000D01*
X274496000Y-60824000D02*
X274196000Y-60824000D01*
D11*
%TO.C,C2*%
X179049733Y-127584000D02*
X179342267Y-127584000D01*
X179049733Y-126564000D02*
X179342267Y-126564000D01*
D10*
%TO.C,D15*%
X205360152Y-63397504D02*
G75*
G03*
X205360152Y-63397504I-75000J0D01*
G01*
X208246000Y-63574000D02*
X205546000Y-63574000D01*
X204996000Y-62324000D02*
X205296000Y-62324000D01*
X204996000Y-63824000D02*
X205296000Y-63824000D01*
X208246000Y-63574000D02*
X208796000Y-63024000D01*
X208496000Y-63824000D02*
X208246000Y-63574000D01*
X205296000Y-63824000D02*
X205546000Y-63574000D01*
X204996000Y-63824000D02*
X204996000Y-62324000D01*
X208796000Y-62324000D02*
X208796000Y-63824000D01*
X208796000Y-62324000D02*
X208496000Y-62324000D01*
X208796000Y-63824000D02*
X208496000Y-63824000D01*
%TO.C,D9*%
X161560152Y-63397504D02*
G75*
G03*
X161560152Y-63397504I-75000J0D01*
G01*
X164446000Y-63574000D02*
X161746000Y-63574000D01*
X161196000Y-62324000D02*
X161496000Y-62324000D01*
X161196000Y-63824000D02*
X161496000Y-63824000D01*
X164446000Y-63574000D02*
X164996000Y-63024000D01*
X164696000Y-63824000D02*
X164446000Y-63574000D01*
X161496000Y-63824000D02*
X161746000Y-63574000D01*
X161196000Y-63824000D02*
X161196000Y-62324000D01*
X164996000Y-62324000D02*
X164996000Y-63824000D01*
X164996000Y-62324000D02*
X164696000Y-62324000D01*
X164996000Y-63824000D02*
X164696000Y-63824000D01*
%TO.C,D19*%
X234560152Y-63397504D02*
G75*
G03*
X234560152Y-63397504I-75000J0D01*
G01*
X237446000Y-63574000D02*
X234746000Y-63574000D01*
X234196000Y-62324000D02*
X234496000Y-62324000D01*
X234196000Y-63824000D02*
X234496000Y-63824000D01*
X237446000Y-63574000D02*
X237996000Y-63024000D01*
X237696000Y-63824000D02*
X237446000Y-63574000D01*
X234496000Y-63824000D02*
X234746000Y-63574000D01*
X234196000Y-63824000D02*
X234196000Y-62324000D01*
X237996000Y-62324000D02*
X237996000Y-63824000D01*
X237996000Y-62324000D02*
X237696000Y-62324000D01*
X237996000Y-63824000D02*
X237696000Y-63824000D01*
%TO.C,D4*%
X125060152Y-60397504D02*
G75*
G03*
X125060152Y-60397504I-75000J0D01*
G01*
X127946000Y-60574000D02*
X125246000Y-60574000D01*
X124696000Y-59324000D02*
X124996000Y-59324000D01*
X124696000Y-60824000D02*
X124996000Y-60824000D01*
X127946000Y-60574000D02*
X128496000Y-60024000D01*
X128196000Y-60824000D02*
X127946000Y-60574000D01*
X124996000Y-60824000D02*
X125246000Y-60574000D01*
X124696000Y-60824000D02*
X124696000Y-59324000D01*
X128496000Y-59324000D02*
X128496000Y-60824000D01*
X128496000Y-59324000D02*
X128196000Y-59324000D01*
X128496000Y-60824000D02*
X128196000Y-60824000D01*
%TO.C,D7*%
X146960152Y-63397504D02*
G75*
G03*
X146960152Y-63397504I-75000J0D01*
G01*
X149846000Y-63574000D02*
X147146000Y-63574000D01*
X146596000Y-62324000D02*
X146896000Y-62324000D01*
X146596000Y-63824000D02*
X146896000Y-63824000D01*
X149846000Y-63574000D02*
X150396000Y-63024000D01*
X150096000Y-63824000D02*
X149846000Y-63574000D01*
X146896000Y-63824000D02*
X147146000Y-63574000D01*
X146596000Y-63824000D02*
X146596000Y-62324000D01*
X150396000Y-62324000D02*
X150396000Y-63824000D01*
X150396000Y-62324000D02*
X150096000Y-62324000D01*
X150396000Y-63824000D02*
X150096000Y-63824000D01*
D11*
%TO.C,C4*%
X167009733Y-148434000D02*
X167302267Y-148434000D01*
X167009733Y-147414000D02*
X167302267Y-147414000D01*
D10*
%TO.C,D18*%
X227260152Y-60397504D02*
G75*
G03*
X227260152Y-60397504I-75000J0D01*
G01*
X230146000Y-60574000D02*
X227446000Y-60574000D01*
X226896000Y-59324000D02*
X227196000Y-59324000D01*
X226896000Y-60824000D02*
X227196000Y-60824000D01*
X230146000Y-60574000D02*
X230696000Y-60024000D01*
X230396000Y-60824000D02*
X230146000Y-60574000D01*
X227196000Y-60824000D02*
X227446000Y-60574000D01*
X226896000Y-60824000D02*
X226896000Y-59324000D01*
X230696000Y-59324000D02*
X230696000Y-60824000D01*
X230696000Y-59324000D02*
X230396000Y-59324000D01*
X230696000Y-60824000D02*
X230396000Y-60824000D01*
%TO.C,D20*%
X241860152Y-60397504D02*
G75*
G03*
X241860152Y-60397504I-75000J0D01*
G01*
X244746000Y-60574000D02*
X242046000Y-60574000D01*
X241496000Y-59324000D02*
X241796000Y-59324000D01*
X241496000Y-60824000D02*
X241796000Y-60824000D01*
X244746000Y-60574000D02*
X245296000Y-60024000D01*
X244996000Y-60824000D02*
X244746000Y-60574000D01*
X241796000Y-60824000D02*
X242046000Y-60574000D01*
X241496000Y-60824000D02*
X241496000Y-59324000D01*
X245296000Y-59324000D02*
X245296000Y-60824000D01*
X245296000Y-59324000D02*
X244996000Y-59324000D01*
X245296000Y-60824000D02*
X244996000Y-60824000D01*
%TO.C,D8*%
X154260152Y-60397504D02*
G75*
G03*
X154260152Y-60397504I-75000J0D01*
G01*
X157146000Y-60574000D02*
X154446000Y-60574000D01*
X153896000Y-59324000D02*
X154196000Y-59324000D01*
X153896000Y-60824000D02*
X154196000Y-60824000D01*
X157146000Y-60574000D02*
X157696000Y-60024000D01*
X157396000Y-60824000D02*
X157146000Y-60574000D01*
X154196000Y-60824000D02*
X154446000Y-60574000D01*
X153896000Y-60824000D02*
X153896000Y-59324000D01*
X157696000Y-59324000D02*
X157696000Y-60824000D01*
X157696000Y-59324000D02*
X157396000Y-59324000D01*
X157696000Y-60824000D02*
X157396000Y-60824000D01*
D11*
%TO.C,C3*%
X184049733Y-147584000D02*
X184342267Y-147584000D01*
X184049733Y-146564000D02*
X184342267Y-146564000D01*
%TO.C,R21*%
X343958742Y-131551500D02*
X344433258Y-131551500D01*
X343958742Y-132596500D02*
X344433258Y-132596500D01*
D10*
%TO.C,D28*%
X300260152Y-60397504D02*
G75*
G03*
X300260152Y-60397504I-75000J0D01*
G01*
X303146000Y-60574000D02*
X300446000Y-60574000D01*
X299896000Y-59324000D02*
X300196000Y-59324000D01*
X299896000Y-60824000D02*
X300196000Y-60824000D01*
X303146000Y-60574000D02*
X303696000Y-60024000D01*
X303396000Y-60824000D02*
X303146000Y-60574000D01*
X300196000Y-60824000D02*
X300446000Y-60574000D01*
X299896000Y-60824000D02*
X299896000Y-59324000D01*
X303696000Y-59324000D02*
X303696000Y-60824000D01*
X303696000Y-59324000D02*
X303396000Y-59324000D01*
X303696000Y-60824000D02*
X303396000Y-60824000D01*
%TO.C,D16*%
X212660152Y-60397504D02*
G75*
G03*
X212660152Y-60397504I-75000J0D01*
G01*
X215546000Y-60574000D02*
X212846000Y-60574000D01*
X212296000Y-59324000D02*
X212596000Y-59324000D01*
X212296000Y-60824000D02*
X212596000Y-60824000D01*
X215546000Y-60574000D02*
X216096000Y-60024000D01*
X215796000Y-60824000D02*
X215546000Y-60574000D01*
X212596000Y-60824000D02*
X212846000Y-60574000D01*
X212296000Y-60824000D02*
X212296000Y-59324000D01*
X216096000Y-59324000D02*
X216096000Y-60824000D01*
X216096000Y-59324000D02*
X215796000Y-59324000D01*
X216096000Y-60824000D02*
X215796000Y-60824000D01*
D11*
%TO.C,C6*%
X214049733Y-147584000D02*
X214342267Y-147584000D01*
X214049733Y-146564000D02*
X214342267Y-146564000D01*
D10*
%TO.C,D5*%
X132360152Y-63397504D02*
G75*
G03*
X132360152Y-63397504I-75000J0D01*
G01*
X135246000Y-63574000D02*
X132546000Y-63574000D01*
X131996000Y-62324000D02*
X132296000Y-62324000D01*
X131996000Y-63824000D02*
X132296000Y-63824000D01*
X135246000Y-63574000D02*
X135796000Y-63024000D01*
X135496000Y-63824000D02*
X135246000Y-63574000D01*
X132296000Y-63824000D02*
X132546000Y-63574000D01*
X131996000Y-63824000D02*
X131996000Y-62324000D01*
X135796000Y-62324000D02*
X135796000Y-63824000D01*
X135796000Y-62324000D02*
X135496000Y-62324000D01*
X135796000Y-63824000D02*
X135496000Y-63824000D01*
%TO.C,D12*%
X183460152Y-60397504D02*
G75*
G03*
X183460152Y-60397504I-75000J0D01*
G01*
X186346000Y-60574000D02*
X183646000Y-60574000D01*
X183096000Y-59324000D02*
X183396000Y-59324000D01*
X183096000Y-60824000D02*
X183396000Y-60824000D01*
X186346000Y-60574000D02*
X186896000Y-60024000D01*
X186596000Y-60824000D02*
X186346000Y-60574000D01*
X183396000Y-60824000D02*
X183646000Y-60574000D01*
X183096000Y-60824000D02*
X183096000Y-59324000D01*
X186896000Y-59324000D02*
X186896000Y-60824000D01*
X186896000Y-59324000D02*
X186596000Y-59324000D01*
X186896000Y-60824000D02*
X186596000Y-60824000D01*
%TO.C,D10*%
X168860152Y-60397504D02*
G75*
G03*
X168860152Y-60397504I-75000J0D01*
G01*
X171746000Y-60574000D02*
X169046000Y-60574000D01*
X168496000Y-59324000D02*
X168796000Y-59324000D01*
X168496000Y-60824000D02*
X168796000Y-60824000D01*
X171746000Y-60574000D02*
X172296000Y-60024000D01*
X171996000Y-60824000D02*
X171746000Y-60574000D01*
X168796000Y-60824000D02*
X169046000Y-60574000D01*
X168496000Y-60824000D02*
X168496000Y-59324000D01*
X172296000Y-59324000D02*
X172296000Y-60824000D01*
X172296000Y-59324000D02*
X171996000Y-59324000D01*
X172296000Y-60824000D02*
X171996000Y-60824000D01*
%TO.C,D31*%
X322160152Y-63397504D02*
G75*
G03*
X322160152Y-63397504I-75000J0D01*
G01*
X325046000Y-63574000D02*
X322346000Y-63574000D01*
X321796000Y-62324000D02*
X322096000Y-62324000D01*
X321796000Y-63824000D02*
X322096000Y-63824000D01*
X325046000Y-63574000D02*
X325596000Y-63024000D01*
X325296000Y-63824000D02*
X325046000Y-63574000D01*
X322096000Y-63824000D02*
X322346000Y-63574000D01*
X321796000Y-63824000D02*
X321796000Y-62324000D01*
X325596000Y-62324000D02*
X325596000Y-63824000D01*
X325596000Y-62324000D02*
X325296000Y-62324000D01*
X325596000Y-63824000D02*
X325296000Y-63824000D01*
%TO.C,D21*%
X249160152Y-63397504D02*
G75*
G03*
X249160152Y-63397504I-75000J0D01*
G01*
X252046000Y-63574000D02*
X249346000Y-63574000D01*
X248796000Y-62324000D02*
X249096000Y-62324000D01*
X248796000Y-63824000D02*
X249096000Y-63824000D01*
X252046000Y-63574000D02*
X252596000Y-63024000D01*
X252296000Y-63824000D02*
X252046000Y-63574000D01*
X249096000Y-63824000D02*
X249346000Y-63574000D01*
X248796000Y-63824000D02*
X248796000Y-62324000D01*
X252596000Y-62324000D02*
X252596000Y-63824000D01*
X252596000Y-62324000D02*
X252296000Y-62324000D01*
X252596000Y-63824000D02*
X252296000Y-63824000D01*
%TO.C,D11*%
X176160152Y-63397504D02*
G75*
G03*
X176160152Y-63397504I-75000J0D01*
G01*
X179046000Y-63574000D02*
X176346000Y-63574000D01*
X175796000Y-62324000D02*
X176096000Y-62324000D01*
X175796000Y-63824000D02*
X176096000Y-63824000D01*
X179046000Y-63574000D02*
X179596000Y-63024000D01*
X179296000Y-63824000D02*
X179046000Y-63574000D01*
X176096000Y-63824000D02*
X176346000Y-63574000D01*
X175796000Y-63824000D02*
X175796000Y-62324000D01*
X179596000Y-62324000D02*
X179596000Y-63824000D01*
X179596000Y-62324000D02*
X179296000Y-62324000D01*
X179596000Y-63824000D02*
X179296000Y-63824000D01*
D11*
%TO.C,C7*%
X209699733Y-147584000D02*
X209992267Y-147584000D01*
X209699733Y-146564000D02*
X209992267Y-146564000D01*
D10*
%TO.C,D6*%
X139660152Y-60397504D02*
G75*
G03*
X139660152Y-60397504I-75000J0D01*
G01*
X142546000Y-60574000D02*
X139846000Y-60574000D01*
X139296000Y-59324000D02*
X139596000Y-59324000D01*
X139296000Y-60824000D02*
X139596000Y-60824000D01*
X142546000Y-60574000D02*
X143096000Y-60024000D01*
X142796000Y-60824000D02*
X142546000Y-60574000D01*
X139596000Y-60824000D02*
X139846000Y-60574000D01*
X139296000Y-60824000D02*
X139296000Y-59324000D01*
X143096000Y-59324000D02*
X143096000Y-60824000D01*
X143096000Y-59324000D02*
X142796000Y-59324000D01*
X143096000Y-60824000D02*
X142796000Y-60824000D01*
%TO.C,D23*%
X263760152Y-63397504D02*
G75*
G03*
X263760152Y-63397504I-75000J0D01*
G01*
X266646000Y-63574000D02*
X263946000Y-63574000D01*
X263396000Y-62324000D02*
X263696000Y-62324000D01*
X263396000Y-63824000D02*
X263696000Y-63824000D01*
X266646000Y-63574000D02*
X267196000Y-63024000D01*
X266896000Y-63824000D02*
X266646000Y-63574000D01*
X263696000Y-63824000D02*
X263946000Y-63574000D01*
X263396000Y-63824000D02*
X263396000Y-62324000D01*
X267196000Y-62324000D02*
X267196000Y-63824000D01*
X267196000Y-62324000D02*
X266896000Y-62324000D01*
X267196000Y-63824000D02*
X266896000Y-63824000D01*
%TO.C,D27*%
X292960152Y-63397504D02*
G75*
G03*
X292960152Y-63397504I-75000J0D01*
G01*
X295846000Y-63574000D02*
X293146000Y-63574000D01*
X292596000Y-62324000D02*
X292896000Y-62324000D01*
X292596000Y-63824000D02*
X292896000Y-63824000D01*
X295846000Y-63574000D02*
X296396000Y-63024000D01*
X296096000Y-63824000D02*
X295846000Y-63574000D01*
X292896000Y-63824000D02*
X293146000Y-63574000D01*
X292596000Y-63824000D02*
X292596000Y-62324000D01*
X296396000Y-62324000D02*
X296396000Y-63824000D01*
X296396000Y-62324000D02*
X296096000Y-62324000D01*
X296396000Y-63824000D02*
X296096000Y-63824000D01*
%TO.C,D3*%
X117760152Y-63397504D02*
G75*
G03*
X117760152Y-63397504I-75000J0D01*
G01*
X120646000Y-63574000D02*
X117946000Y-63574000D01*
X117396000Y-62324000D02*
X117696000Y-62324000D01*
X117396000Y-63824000D02*
X117696000Y-63824000D01*
X120646000Y-63574000D02*
X121196000Y-63024000D01*
X120896000Y-63824000D02*
X120646000Y-63574000D01*
X117696000Y-63824000D02*
X117946000Y-63574000D01*
X117396000Y-63824000D02*
X117396000Y-62324000D01*
X121196000Y-62324000D02*
X121196000Y-63824000D01*
X121196000Y-62324000D02*
X120896000Y-62324000D01*
X121196000Y-63824000D02*
X120896000Y-63824000D01*
D11*
%TO.C,C1*%
X184049733Y-142584000D02*
X184342267Y-142584000D01*
X184049733Y-141564000D02*
X184342267Y-141564000D01*
%TO.C,U8*%
X109196000Y-153634000D02*
X109996000Y-153634000D01*
X109196000Y-150514000D02*
X109996000Y-150514000D01*
D12*
X110196000Y-152074000D02*
X111446000Y-152074000D01*
X111446000Y-153074000D02*
X111446000Y-152074000D01*
D11*
X109196000Y-150514000D02*
X107396000Y-150514000D01*
X109196000Y-153634000D02*
X108396000Y-153634000D01*
%TO.C,C5*%
X174699733Y-127584000D02*
X174992267Y-127584000D01*
X174699733Y-126564000D02*
X174992267Y-126564000D01*
D10*
%TO.C,D17*%
X219960152Y-63397504D02*
G75*
G03*
X219960152Y-63397504I-75000J0D01*
G01*
X222846000Y-63574000D02*
X220146000Y-63574000D01*
X219596000Y-62324000D02*
X219896000Y-62324000D01*
X219596000Y-63824000D02*
X219896000Y-63824000D01*
X222846000Y-63574000D02*
X223396000Y-63024000D01*
X223096000Y-63824000D02*
X222846000Y-63574000D01*
X219896000Y-63824000D02*
X220146000Y-63574000D01*
X219596000Y-63824000D02*
X219596000Y-62324000D01*
X223396000Y-62324000D02*
X223396000Y-63824000D01*
X223396000Y-62324000D02*
X223096000Y-62324000D01*
X223396000Y-63824000D02*
X223096000Y-63824000D01*
%TO.C,D30*%
X314860152Y-60397504D02*
G75*
G03*
X314860152Y-60397504I-75000J0D01*
G01*
X317746000Y-60574000D02*
X315046000Y-60574000D01*
X314496000Y-59324000D02*
X314796000Y-59324000D01*
X314496000Y-60824000D02*
X314796000Y-60824000D01*
X317746000Y-60574000D02*
X318296000Y-60024000D01*
X317996000Y-60824000D02*
X317746000Y-60574000D01*
X314796000Y-60824000D02*
X315046000Y-60574000D01*
X314496000Y-60824000D02*
X314496000Y-59324000D01*
X318296000Y-59324000D02*
X318296000Y-60824000D01*
X318296000Y-59324000D02*
X317996000Y-59324000D01*
X318296000Y-60824000D02*
X317996000Y-60824000D01*
%TD*%
D13*
%TO.C,K32*%
X323696000Y-104074000D03*
%TD*%
%TO.C,K10*%
X163096000Y-104074000D03*
%TD*%
D14*
%TO.C,K3*%
X119296000Y-80074000D03*
%TD*%
%TO.C,K23*%
X265296000Y-80074000D03*
%TD*%
%TO.C,K13*%
X192296000Y-80074000D03*
%TD*%
%TO.C,K1*%
X104696000Y-80074000D03*
%TD*%
D13*
%TO.C,K8*%
X148496000Y-104074000D03*
%TD*%
%TO.C,K2*%
X104696000Y-104074000D03*
%TD*%
D14*
%TO.C,K9*%
X163096000Y-80074000D03*
%TD*%
%TO.C,K25*%
X279896000Y-80074000D03*
%TD*%
D13*
%TO.C,K30*%
X309096000Y-104074000D03*
%TD*%
D14*
%TO.C,K21*%
X250696000Y-80074000D03*
%TD*%
D13*
%TO.C,K4*%
X119296000Y-104074000D03*
%TD*%
D14*
%TO.C,K7*%
X148496000Y-80074000D03*
%TD*%
D13*
%TO.C,K16*%
X206896000Y-104074000D03*
%TD*%
%TO.C,K24*%
X265296000Y-104074000D03*
%TD*%
%TO.C,K18*%
X221496000Y-104074000D03*
%TD*%
%TO.C,K6*%
X133896000Y-104074000D03*
%TD*%
D14*
%TO.C,K15*%
X206896000Y-80074000D03*
%TD*%
D13*
%TO.C,K20*%
X236096000Y-104074000D03*
%TD*%
%TO.C,K22*%
X250696000Y-104074000D03*
%TD*%
D14*
%TO.C,K5*%
X133896000Y-80074000D03*
%TD*%
D13*
%TO.C,K26*%
X279896000Y-104074000D03*
%TD*%
D14*
%TO.C,K19*%
X236096000Y-80074000D03*
%TD*%
D13*
%TO.C,K28*%
X294496000Y-104074000D03*
%TD*%
D14*
%TO.C,K31*%
X323696000Y-80074000D03*
%TD*%
D13*
%TO.C,K14*%
X192296000Y-104074000D03*
%TD*%
D14*
%TO.C,K11*%
X177696000Y-80074000D03*
%TD*%
%TO.C,K29*%
X309096000Y-80074000D03*
%TD*%
D13*
%TO.C,K12*%
X177696000Y-104074000D03*
%TD*%
D14*
%TO.C,K27*%
X294496000Y-80074000D03*
%TD*%
%TO.C,K17*%
X221496000Y-80074000D03*
%TD*%
%LPC*%
D15*
%TO.C,D29*%
X310371000Y-62424000D03*
X309521000Y-62424000D03*
X308671000Y-62424000D03*
X307821000Y-62424000D03*
%TD*%
D16*
%TO.C,K32*%
X320296000Y-119074000D03*
X327096000Y-119074000D03*
%TD*%
D15*
%TO.C,D13*%
X193571000Y-62424000D03*
X192721000Y-62424000D03*
X191871000Y-62424000D03*
X191021000Y-62424000D03*
%TD*%
D17*
%TO.C,R20*%
X344821000Y-129584000D03*
X343171000Y-129584000D03*
%TD*%
D15*
%TO.C,D22*%
X259271000Y-59424000D03*
X258421000Y-59424000D03*
X257571000Y-59424000D03*
X256721000Y-59424000D03*
%TD*%
%TO.C,D1*%
X105971000Y-62424000D03*
X105121000Y-62424000D03*
X104271000Y-62424000D03*
X103421000Y-62424000D03*
%TD*%
D16*
%TO.C,K10*%
X159696000Y-119074000D03*
X166496000Y-119074000D03*
%TD*%
D15*
%TO.C,D25*%
X281171000Y-62424000D03*
X280321000Y-62424000D03*
X279471000Y-62424000D03*
X278621000Y-62424000D03*
%TD*%
%TO.C,D26*%
X288471000Y-59424000D03*
X287621000Y-59424000D03*
X286771000Y-59424000D03*
X285921000Y-59424000D03*
%TD*%
%TO.C,D2*%
X113271000Y-59424000D03*
X112421000Y-59424000D03*
X111571000Y-59424000D03*
X110721000Y-59424000D03*
%TD*%
%TO.C,D14*%
X200871000Y-59424000D03*
X200021000Y-59424000D03*
X199171000Y-59424000D03*
X198321000Y-59424000D03*
%TD*%
D17*
%TO.C,R4*%
X105021000Y-147074000D03*
X103371000Y-147074000D03*
%TD*%
D15*
%TO.C,D24*%
X273871000Y-59424000D03*
X273021000Y-59424000D03*
X272171000Y-59424000D03*
X271321000Y-59424000D03*
%TD*%
D18*
%TO.C,C2*%
X180058500Y-127074000D03*
X178333500Y-127074000D03*
%TD*%
D16*
%TO.C,K8*%
X145096000Y-119074000D03*
X151896000Y-119074000D03*
%TD*%
D15*
%TO.C,D15*%
X208171000Y-62424000D03*
X207321000Y-62424000D03*
X206471000Y-62424000D03*
X205621000Y-62424000D03*
%TD*%
%TO.C,D9*%
X164371000Y-62424000D03*
X163521000Y-62424000D03*
X162671000Y-62424000D03*
X161821000Y-62424000D03*
%TD*%
D16*
%TO.C,K2*%
X101296000Y-119074000D03*
X108096000Y-119074000D03*
%TD*%
D15*
%TO.C,D19*%
X237371000Y-62424000D03*
X236521000Y-62424000D03*
X235671000Y-62424000D03*
X234821000Y-62424000D03*
%TD*%
%TO.C,D4*%
X127871000Y-59424000D03*
X127021000Y-59424000D03*
X126171000Y-59424000D03*
X125321000Y-59424000D03*
%TD*%
%TO.C,D7*%
X149771000Y-62424000D03*
X148921000Y-62424000D03*
X148071000Y-62424000D03*
X147221000Y-62424000D03*
%TD*%
D18*
%TO.C,C4*%
X168018500Y-147924000D03*
X166293500Y-147924000D03*
%TD*%
D15*
%TO.C,D18*%
X230071000Y-59424000D03*
X229221000Y-59424000D03*
X228371000Y-59424000D03*
X227521000Y-59424000D03*
%TD*%
D16*
%TO.C,K30*%
X305696000Y-119074000D03*
X312496000Y-119074000D03*
%TD*%
D15*
%TO.C,D20*%
X244671000Y-59424000D03*
X243821000Y-59424000D03*
X242971000Y-59424000D03*
X242121000Y-59424000D03*
%TD*%
D16*
%TO.C,K4*%
X115896000Y-119074000D03*
X122696000Y-119074000D03*
%TD*%
%TO.C,K16*%
X203496000Y-119074000D03*
X210296000Y-119074000D03*
%TD*%
D15*
%TO.C,D8*%
X157071000Y-59424000D03*
X156221000Y-59424000D03*
X155371000Y-59424000D03*
X154521000Y-59424000D03*
%TD*%
D18*
%TO.C,C3*%
X185058500Y-147074000D03*
X183333500Y-147074000D03*
%TD*%
D17*
%TO.C,R21*%
X345021000Y-132074000D03*
X343371000Y-132074000D03*
%TD*%
D15*
%TO.C,D28*%
X303071000Y-59424000D03*
X302221000Y-59424000D03*
X301371000Y-59424000D03*
X300521000Y-59424000D03*
%TD*%
D16*
%TO.C,K24*%
X261896000Y-119074000D03*
X268696000Y-119074000D03*
%TD*%
%TO.C,K18*%
X218096000Y-119074000D03*
X224896000Y-119074000D03*
%TD*%
%TO.C,K6*%
X130496000Y-119074000D03*
X137296000Y-119074000D03*
%TD*%
D15*
%TO.C,D16*%
X215471000Y-59424000D03*
X214621000Y-59424000D03*
X213771000Y-59424000D03*
X212921000Y-59424000D03*
%TD*%
D18*
%TO.C,C6*%
X215058500Y-147074000D03*
X213333500Y-147074000D03*
%TD*%
D15*
%TO.C,D5*%
X135171000Y-62424000D03*
X134321000Y-62424000D03*
X133471000Y-62424000D03*
X132621000Y-62424000D03*
%TD*%
%TO.C,D12*%
X186271000Y-59424000D03*
X185421000Y-59424000D03*
X184571000Y-59424000D03*
X183721000Y-59424000D03*
%TD*%
D19*
%TO.C,SCR4*%
X339196000Y-147074000D03*
%TD*%
D16*
%TO.C,K20*%
X232696000Y-119074000D03*
X239496000Y-119074000D03*
%TD*%
D15*
%TO.C,D10*%
X171671000Y-59424000D03*
X170821000Y-59424000D03*
X169971000Y-59424000D03*
X169121000Y-59424000D03*
%TD*%
D16*
%TO.C,K22*%
X247296000Y-119074000D03*
X254096000Y-119074000D03*
%TD*%
D15*
%TO.C,D31*%
X324971000Y-62424000D03*
X324121000Y-62424000D03*
X323271000Y-62424000D03*
X322421000Y-62424000D03*
%TD*%
%TO.C,D21*%
X251971000Y-62424000D03*
X251121000Y-62424000D03*
X250271000Y-62424000D03*
X249421000Y-62424000D03*
%TD*%
%TO.C,D11*%
X178971000Y-62424000D03*
X178121000Y-62424000D03*
X177271000Y-62424000D03*
X176421000Y-62424000D03*
%TD*%
D18*
%TO.C,C7*%
X210708500Y-147074000D03*
X208983500Y-147074000D03*
%TD*%
D19*
%TO.C,SCR3*%
X89196000Y-147074000D03*
%TD*%
D15*
%TO.C,D6*%
X142471000Y-59424000D03*
X141621000Y-59424000D03*
X140771000Y-59424000D03*
X139921000Y-59424000D03*
%TD*%
D16*
%TO.C,K26*%
X276496000Y-119074000D03*
X283296000Y-119074000D03*
%TD*%
%TO.C,K28*%
X291096000Y-119074000D03*
X297896000Y-119074000D03*
%TD*%
D15*
%TO.C,D23*%
X266571000Y-62424000D03*
X265721000Y-62424000D03*
X264871000Y-62424000D03*
X264021000Y-62424000D03*
%TD*%
D16*
%TO.C,K14*%
X188896000Y-119074000D03*
X195696000Y-119074000D03*
%TD*%
D15*
%TO.C,D27*%
X295771000Y-62424000D03*
X294921000Y-62424000D03*
X294071000Y-62424000D03*
X293221000Y-62424000D03*
%TD*%
%TO.C,D3*%
X120571000Y-62424000D03*
X119721000Y-62424000D03*
X118871000Y-62424000D03*
X118021000Y-62424000D03*
%TD*%
D18*
%TO.C,C1*%
X185058500Y-142074000D03*
X183333500Y-142074000D03*
%TD*%
D19*
%TO.C,SCR2*%
X331196000Y-62074000D03*
%TD*%
D20*
%TO.C,U8*%
X110333500Y-151124000D03*
X110333500Y-153024000D03*
X108058500Y-153024000D03*
X108058500Y-152074000D03*
X108058500Y-151124000D03*
%TD*%
D16*
%TO.C,K12*%
X174296000Y-119074000D03*
X181096000Y-119074000D03*
%TD*%
D18*
%TO.C,C5*%
X175708500Y-127074000D03*
X173983500Y-127074000D03*
%TD*%
D15*
%TO.C,D17*%
X222771000Y-62424000D03*
X221921000Y-62424000D03*
X221071000Y-62424000D03*
X220221000Y-62424000D03*
%TD*%
D19*
%TO.C,SCR1*%
X97196000Y-62074000D03*
%TD*%
D15*
%TO.C,D30*%
X317671000Y-59424000D03*
X316821000Y-59424000D03*
X315971000Y-59424000D03*
X315121000Y-59424000D03*
%TD*%
D21*
%TO.C,U3*%
X140546000Y-141854000D03*
X148166000Y-124074000D03*
X145626000Y-124074000D03*
X143086000Y-124074000D03*
X140546000Y-124074000D03*
X138006000Y-124074000D03*
X135466000Y-124074000D03*
X132926000Y-124074000D03*
X130386000Y-124074000D03*
X127846000Y-124074000D03*
X125306000Y-124074000D03*
X122766000Y-124074000D03*
D22*
X120226000Y-124074000D03*
D21*
X127846000Y-141854000D03*
X130386000Y-141854000D03*
X132926000Y-141854000D03*
X135466000Y-141854000D03*
X138006000Y-141854000D03*
%TD*%
%TO.C,U4*%
X220546000Y-141854000D03*
X228166000Y-124074000D03*
X225626000Y-124074000D03*
X223086000Y-124074000D03*
X220546000Y-124074000D03*
X218006000Y-124074000D03*
X215466000Y-124074000D03*
X212926000Y-124074000D03*
X210386000Y-124074000D03*
X207846000Y-124074000D03*
X205306000Y-124074000D03*
X202766000Y-124074000D03*
D22*
X200226000Y-124074000D03*
D21*
X207846000Y-141854000D03*
X210386000Y-141854000D03*
X212926000Y-141854000D03*
X215466000Y-141854000D03*
X218006000Y-141854000D03*
%TD*%
D23*
%TO.C,USB1*%
X349311359Y-121927338D03*
X347334483Y-116495914D03*
D24*
X346347357Y-115333424D03*
X349302411Y-123452369D03*
D25*
X353230326Y-122022724D03*
X350275272Y-113903780D03*
%TD*%
D21*
%TO.C,U5*%
X270546000Y-143054000D03*
X278166000Y-125274000D03*
X275626000Y-125274000D03*
X273086000Y-125274000D03*
X270546000Y-125274000D03*
X268006000Y-125274000D03*
X265466000Y-125274000D03*
X262926000Y-125274000D03*
X260386000Y-125274000D03*
X257846000Y-125274000D03*
X255306000Y-125274000D03*
X252766000Y-125274000D03*
D22*
X250226000Y-125274000D03*
D21*
X257846000Y-143054000D03*
X260386000Y-143054000D03*
X262926000Y-143054000D03*
X265466000Y-143054000D03*
X268006000Y-143054000D03*
%TD*%
D26*
%TO.C,U1*%
X333866000Y-143074000D03*
X333846000Y-141074000D03*
X330566000Y-142074000D03*
%TD*%
M02*
