M48
; DRILL file {KiCad (6.0.7)} date Wed Aug  9 20:53:40 2023
; FORMAT={-:-/ absolute / inch / decimal}
; #@! TF.CreationDate,2023-08-09T20:53:40+08:00
; #@! TF.GenerationSoftware,Kicad,Pcbnew,(6.0.7)
; #@! TF.FileFunction,Plated,1,2,PTH
FMAT,2
INCH
; #@! TA.AperFunction,Plated,PTH,ComponentDrill
T1C0.0236
; #@! TA.AperFunction,Plated,PTH,ComponentDrill
T2C0.0394
; #@! TA.AperFunction,Plated,PTH,ComponentDrill
T3C0.0472
%
G90
G05
T2
X4.7333Y-4.8848
X4.8333Y-4.8848
X4.9333Y-4.8848
X5.0333Y-4.8848
X5.0333Y-5.5848
X5.1333Y-4.8848
X5.1333Y-5.5848
X5.2333Y-4.8848
X5.2333Y-5.5848
X5.3333Y-4.8848
X5.3333Y-5.5848
X5.4333Y-4.8848
X5.4333Y-5.5848
X5.5333Y-4.8848
X5.5333Y-5.5848
X5.6333Y-4.8848
X5.7333Y-4.8848
X5.8333Y-4.8848
X7.8829Y-4.8848
X7.9829Y-4.8848
X8.0829Y-4.8848
X8.1829Y-4.8848
X8.1829Y-5.5848
X8.2829Y-4.8848
X8.2829Y-5.5848
X8.3829Y-4.8848
X8.3829Y-5.5848
X8.4829Y-4.8848
X8.4829Y-5.5848
X8.5829Y-4.8848
X8.5829Y-5.5848
X8.6829Y-4.8848
X8.6829Y-5.5848
X8.7829Y-4.8848
X8.8829Y-4.8848
X8.9829Y-4.8848
X9.8514Y-4.932
X9.9514Y-4.932
X10.0514Y-4.932
X10.1514Y-4.932
X10.1514Y-5.632
X10.2514Y-4.932
X10.2514Y-5.632
X10.3514Y-4.932
X10.3514Y-5.632
X10.4514Y-4.932
X10.4514Y-5.632
X10.5514Y-4.932
X10.5514Y-5.632
X10.6514Y-4.932
X10.6514Y-5.632
X10.7514Y-4.932
X10.8514Y-4.932
X10.9514Y-4.932
T1
G00X13.6561Y-4.5333
M15
G01X13.6154Y-4.5481
M16
G05
G00X13.7724Y-4.8529
M15
G01X13.7317Y-4.8677
M16
G05
G00X13.8015Y-4.4804
M15
G01X13.7793Y-4.4884
M16
G05
G00X13.9178Y-4.8
M15
G01X13.8956Y-4.8081
M16
G05
T3
G00X12.9947Y-5.5935
M15
G01X13.0341Y-5.5935
M16
G05
G00X13.1239Y-5.5541
M15
G01X13.1632Y-5.5541
M16
G05
G00X13.1246Y-5.6328
M15
G01X13.164Y-5.6328
M16
G05
T0
M30
